<svg width="21" height="21" viewBox="0 0 21 21" fill="none" xmlns="http://www.w3.org/2000/svg">
  <path
    d="M14.0012 5.97845C16.0436 5.97845 17.3496 7.84707 17.3496 7.84707C17.3496 7.84707 15.3573 8.86939 15.3573 11.0896C15.3573 13.7248 17.8601 14.4913 17.8601 14.4913C17.8601 14.4913 15.8846 18.9235 13.6664 18.9235C12.4191 18.9235 12.3358 18.245 10.6782 18.245C9.23869 18.245 8.75327 18.9235 7.65669 18.9235C5.56374 18.9235 2.86011 14.6032 2.86011 11.0896C2.86011 7.43995 5.59743 5.97845 7.31333 5.97845C8.82019 5.97845 9.44777 6.81694 10.6614 6.81694C11.6828 6.81694 12.4865 5.97845 14.0012 5.97845ZM13.65 2.25684C13.951 4.04568 12.2352 6.25809 10.1845 6.18612C9.88311 3.90998 12.0931 2.37691 13.65 2.25684Z"
    fill="#D1E500" />
</svg>