<svg width="100%" height="19.521%" viewBox="0 0 292 57" fill="none" xmlns="http://www.w3.org/2000/svg">
  <g clip-path="url(#117313411_clip0_3972_639)">
    <path
      d="M30.3827 46.5273C30.3827 47.4442 29.6391 48.1854 28.7225 48.1854C27.806 48.1854 27.0623 47.4414 27.0623 46.5273C27.0623 37.5013 19.7164 30.1608 10.6855 30.1608C9.76901 30.1608 9.02535 29.4169 9.02535 28.5027C9.02535 27.5886 9.76901 26.8447 10.6855 26.8447C19.7136 26.8447 27.0623 19.5014 27.0623 10.4782C27.0623 9.56131 27.806 8.82012 28.7225 8.82012C29.6391 8.82012 30.3827 9.56405 30.3827 10.4782C30.3827 19.5042 37.7287 26.8447 46.7568 26.8447H56.9786C56.1169 11.8947 43.6806 0 28.5167 0C13.3528 0 0 12.7841 0 28.5C0 44.2159 12.793 57 28.5167 57C44.2404 57 56.1169 45.1053 56.9813 30.1581H46.7595C37.7314 30.1581 30.3855 37.5013 30.3855 46.5246L30.3827 46.5273Z"
      fill="var(--icon-color, #999999)"></path>
    <path
      d="M247.436 48.0372H232.609C232.302 48.0372 232.011 47.8779 231.844 47.6226C229.371 43.8508 227.305 40.8339 225.645 38.5664C223.924 36.2166 221.787 33.4989 219.229 30.4161H217.714V42.2833C217.714 42.9449 217.838 43.5049 218.088 43.9634C218.337 44.4218 218.809 44.8089 219.509 45.1191C219.858 45.2673 220.406 45.4183 221.153 45.572L222.346 45.8218C222.769 45.9097 223.071 46.2803 223.071 46.7113V48.0344H201.077V46.7524C201.077 46.2638 201.445 45.8548 201.93 45.7971L204.279 45.6516C205.155 45.5501 205.775 45.4265 206.143 45.281C206.842 44.9873 207.311 44.6167 207.55 44.1665C207.789 43.7163 207.91 43.1426 207.91 42.4453V14.8841C207.91 14.2226 207.808 13.6735 207.605 13.2316C207.402 12.7924 206.914 12.4053 206.143 12.0759C205.553 11.837 204.858 11.6367 204.057 11.4692L202.893 11.2276C202.471 11.1398 202.166 10.7692 202.166 10.3382V8.96289H224.147C229.061 8.96289 232.793 9.72878 235.345 11.2633C237.895 12.7951 239.171 15.1147 239.171 18.2167C239.171 20.9536 238.383 23.1498 236.811 24.8106C235.235 26.4714 232.837 27.7698 229.616 28.7059C230.867 30.3228 232.327 32.195 233.992 34.3225C235.658 36.4527 237.392 38.6268 239.198 40.8476C239.769 41.5641 240.545 42.4398 241.53 43.4775C242.516 44.5151 243.696 45.152 244.45 45.3908C244.873 45.5199 245.688 45.6297 246.341 45.7203L246.604 45.7587C247.079 45.8246 247.433 46.2309 247.433 46.7085V48.0344L247.436 48.0372ZM228.348 18.9881C228.348 16.383 227.615 14.4779 226.153 13.2755C224.69 12.0731 222.604 11.4719 219.899 11.4719H217.717V27.8275H219.816C222.522 27.8275 224.621 27.122 226.111 25.7082C227.601 24.2945 228.348 22.0544 228.348 18.9909V18.9881Z"
      fill="var(--icon-color, #999999)"></path>
    <path
      d="M117.777 36.9742C115.991 39.81 114.009 41.9265 111.833 43.3265C109.66 44.7265 107.643 45.7395 104.863 45.7395C102.956 45.7395 101.351 45.3744 99.7811 44.721C98.2115 44.0677 96.7132 42.9092 95.5579 41.512C94.6386 40.4002 94.0075 39.099 93.4751 37.7703C92.9263 36.3923 92.5943 34.9209 91.7326 33.6856C90.9615 32.5793 89.9462 31.6295 88.769 30.9432C88.061 30.5287 87.2927 30.2102 86.4941 30.0126C85.7615 29.8314 84.9876 29.7738 84.2001 29.771C83.7061 29.771 83.2424 29.4938 83.1161 29.0518C82.9213 28.382 83.4619 27.7808 84.1507 27.7808C84.1836 27.7808 84.2138 27.7808 84.2467 27.7808C86.3514 27.7643 88.404 26.9435 90.0176 25.6066C93.2172 22.9576 92.8303 18.6505 94.8719 15.3618C96.4827 12.7676 99.6576 10.7829 103.39 10.7829C106.389 10.7829 108.93 11.8068 111.015 13.8547C112.999 15.8038 114.717 18.8097 116.161 22.867C116.29 23.2321 116.641 23.4847 117.039 23.4847H119.001V9.17975H116.476C116.257 9.17975 116.045 9.25387 115.878 9.39387L114.039 11.0217C113.395 10.6841 111.361 9.13583 108.304 8.14209C104.751 6.98639 101.334 6.87658 98.2526 7.346C92.715 8.18601 86.8728 11.8068 83.7336 16.6493C81.2968 20.4074 80.0702 24.1298 80.0702 29.1698C80.0702 37.1719 84.8477 42.4563 86.5655 44.0649C88.2229 45.6159 91.3128 47.8944 94.0185 48.825C96.7214 49.7556 99.3448 50.1674 102.446 50.1674C105.031 50.1674 107.286 49.4838 109.152 48.8085C116.152 46.2665 119.374 40.768 120.164 39.4915C120.43 39.0606 120.301 38.4978 119.862 38.2315L117.777 36.9742V36.9742Z"
      fill="var(--icon-color, #999999)"></path>
    <path
      d="M155.807 38.3825C156.117 37.2377 156.318 36.4746 156.318 36.4746C156.351 35.9503 155.934 35.5083 155.41 35.5083H153.486C152.899 36.922 150.64 42.5249 149.737 43.4857C148.876 44.3998 147.655 44.71 146.475 44.9708C145.001 45.2947 143.536 45.5418 142.021 45.528C140.729 45.5171 139.145 45.4649 138.048 44.7072C137.57 44.3778 137.249 43.8617 137.084 43.1645C136.92 42.4672 136.837 41.5119 136.837 40.3013V14.6096C136.837 13.9672 136.958 13.3935 137.194 12.8884C137.433 12.3833 137.91 12.0127 138.627 11.7738C139.214 11.5899 139.905 11.4472 140.704 11.3484L141.985 11.1864C142.441 11.1287 142.781 10.7417 142.781 10.2832V8.96558H121.339V10.3354C121.339 10.7691 121.646 11.1452 122.074 11.2276L123.251 11.4582C124.05 11.6146 124.733 11.8205 125.301 12.0786C126.072 12.4272 126.558 12.817 126.761 13.248C126.964 13.679 127.063 14.2253 127.063 14.8868V42.4507C127.063 43.1672 126.934 43.7547 126.679 44.2131C126.421 44.6716 125.963 45.0312 125.301 45.2865C125.027 45.3963 124.456 45.5116 123.594 45.6296C123.07 45.7037 122.585 45.7641 122.143 45.8108C121.682 45.8602 121.336 46.25 121.336 46.7139V48.0398H152.536L155.807 38.3852V38.3825Z"
      fill="var(--icon-color, #999999)"></path>
    <path
      d="M200.786 45.8026L200.07 45.6488C199.392 45.5033 198.794 45.2865 198.281 44.9982C197.603 44.6002 197.079 44.1802 196.711 43.7355C196.343 43.2908 196.041 42.7994 195.803 42.2558C194.37 38.926 192.639 34.7259 190.6 29.6557C189.168 26.087 184.903 15.6802 183.04 11.1342C183.408 11.0134 183.674 10.684 183.674 10.2832V8.96558H176.643C174.056 15.1202 171.693 20.7504 169.555 25.8537C167.418 30.9596 165.286 36.0546 163.156 41.1413C162.808 42.0115 162.371 42.7609 161.85 43.3951C161.326 44.0292 160.689 44.5617 159.937 44.9982C159.496 45.27 158.895 45.4841 158.134 45.6351L156.815 45.9014C156.389 45.9865 156.085 46.3598 156.085 46.7935V48.0398H172.105V46.7441C172.105 46.2829 171.756 45.8931 171.298 45.841C169.643 45.6571 168.433 45.3908 167.665 45.0394C166.776 44.6331 166.331 44.139 166.331 43.5598C166.331 43.3786 166.364 43.0629 166.427 42.61C166.49 42.157 166.696 41.4241 167.045 40.4111C167.319 39.6342 167.643 38.7448 168.016 37.7511C168.389 36.7546 168.732 35.8871 169.042 35.1432H182.527L185.861 43.126C185.99 43.4335 186.067 43.6778 186.094 43.859C186.122 44.0402 186.135 44.2021 186.135 44.3476C186.135 44.7649 185.466 45.1135 184.129 45.3935C183.136 45.6022 182.236 45.7531 181.435 45.8465C180.979 45.8986 180.642 46.2884 180.642 46.7469V48.0398H201.51V46.692C201.51 46.2637 201.211 45.8931 200.792 45.8026H200.786ZM170.167 32.453L175.738 18.5269L181.391 32.453H170.167Z"
      fill="var(--icon-color, #999999)"></path>
    <path
      d="M291.281 45.8026L290.565 45.6488C289.887 45.5033 289.289 45.2865 288.776 44.9982C288.098 44.6002 287.574 44.1802 287.206 43.7355C286.838 43.2908 286.536 42.7994 286.298 42.2558C284.865 38.926 283.134 34.7259 281.095 29.6557C279.663 26.087 275.398 15.6802 273.535 11.1342C273.903 11.0134 274.169 10.684 274.169 10.2832V8.96558H267.138C264.551 15.1202 262.188 20.7504 260.05 25.8537C257.913 30.9596 255.781 36.0546 253.651 41.1413C253.303 42.0115 252.866 42.7609 252.345 43.3951C251.821 44.0292 251.184 44.5617 250.432 44.9982C249.991 45.27 249.39 45.4841 248.629 45.6351L247.31 45.9014C246.884 45.9865 246.58 46.3598 246.58 46.7935V48.0398H262.6V46.7441C262.6 46.2829 262.251 45.8931 261.793 45.841C260.138 45.6571 258.928 45.3908 258.16 45.0394C257.271 44.6331 256.826 44.139 256.826 43.5598C256.826 43.3786 256.859 43.0629 256.922 42.61C256.985 42.157 257.191 41.4241 257.54 40.4111C257.814 39.6342 258.138 38.7448 258.511 37.7511C258.884 36.7546 259.227 35.8871 259.537 35.1432H273.022L276.356 43.126C276.485 43.4335 276.562 43.6778 276.589 43.859C276.617 44.0402 276.63 44.2021 276.63 44.3476C276.63 44.7649 275.961 45.1135 274.624 45.3935C273.631 45.6022 272.731 45.7531 271.93 45.8465C271.474 45.8986 271.137 46.2884 271.137 46.7469V48.0398H292.005V46.692C292.005 46.2637 291.706 45.8931 291.287 45.8026H291.281ZM260.662 32.453L266.233 18.5269L271.886 32.453H260.662Z"
      fill="var(--icon-color, #999999)"></path>
  </g>
  <defs>
    <clipPath id="117313411_clip0_3972_639">
      <rect width="292" height="57" fill="var(--icon-color, white)"></rect>
    </clipPath>
  </defs>
</svg>