<svg xmlns="http://www.w3.org/2000/svg" width="18" height="18" viewBox="0 0 18 18" fill="none">
  <path
    d="M14.2064 4.005C13.2354 3.5355 12.1972 3.19429 11.1118 3C10.9785 3.24907 10.8228 3.58408 10.7154 3.85057C9.56156 3.67124 8.41834 3.67124 7.28572 3.85057C7.17837 3.58408 7.0191 3.24907 6.8846 3C5.798 3.19429 4.7586 3.53675 3.78762 4.00748C1.82915 7.06602 1.29824 10.0486 1.5637 12.9888C2.86266 13.9913 4.12151 14.6003 5.35911 14.9988C5.66468 14.5641 5.93721 14.1021 6.17199 13.6152C5.72484 13.4396 5.29658 13.2229 4.89192 12.9714C4.99927 12.8892 5.10429 12.8032 5.20574 12.7148C7.67387 13.9079 10.3556 13.9079 12.7942 12.7148C12.8969 12.8032 13.0018 12.8892 13.108 12.9714C12.7022 13.2242 12.2727 13.4408 11.8256 13.6165C12.0604 14.1021 12.3317 14.5654 12.6385 15C13.8773 14.6015 15.1373 13.9925 16.4362 12.9888C16.7477 9.58034 15.9042 6.62516 14.2064 4.005ZM6.50823 11.1806C5.76733 11.1806 5.15972 10.4658 5.15972 9.59528C5.15972 8.72479 5.75435 8.00873 6.50823 8.00873C7.26214 8.00873 7.86972 8.72354 7.85675 9.59528C7.85792 10.4658 7.26214 11.1806 6.50823 11.1806ZM11.4917 11.1806C10.7508 11.1806 10.1432 10.4658 10.1432 9.59528C10.1432 8.72479 10.7378 8.00873 11.4917 8.00873C12.2456 8.00873 12.8532 8.72354 12.8402 9.59528C12.8402 10.4658 12.2456 11.1806 11.4917 11.1806Z"
    fill="white"></path>
</svg>