<?xml version="1.0" encoding="utf-8"?>
<!-- Generator: Adobe Illustrator 16.0.0, SVG Export Plug-In . SVG Version: 6.00 Build 0) -->
<!DOCTYPE svg PUBLIC "-//W3C//DTD SVG 1.1//EN" "http://www.w3.org/Graphics/SVG/1.1/DTD/svg11.dtd">
<svg version="1.1" id="svg17" xmlns:dc="http://purl.org/dc/elements/1.1/" xmlns:cc="http://creativecommons.org/ns#"
	xmlns:rdf="http://www.w3.org/1999/02/22-rdf-syntax-ns#" xmlns:svg="http://www.w3.org/2000/svg"
	xmlns:sodipodi="http://sodipodi.sourceforge.net/DTD/sodipodi-0.dtd"
	xmlns:inkscape="http://www.inkscape.org/namespaces/inkscape" inkscape:version="0.92.4 (5da689c313, 2019-01-14)"
	inkscape:export-ydpi="561.73712" inkscape:export-xdpi="561.73712"
	inkscape:export-filename="G:\Users\suitedoalex\sites\estadao-logo-0.png" sodipodi:docname="estadao-logo.svg"
	xmlns="http://www.w3.org/2000/svg" xmlns:xlink="http://www.w3.org/1999/xlink" x="0px" y="0px" width="529px"
	height="133px" viewBox="89.5 241.5 529 133" enable-background="new 89.5 241.5 529 133" xml:space="preserve">
	<sodipodi:namedview inkscape:cy="350.6691" inkscape:cx="346.98075" inkscape:zoom="0.75909091" showgrid="false"
		guidetolerance="10" gridtolerance="10" pagecolor="#ffffff" bordercolor="#666666" borderopacity="1"
		objecttolerance="10" id="namedview19" inkscape:current-layer="svg17" inkscape:window-maximized="1"
		inkscape:window-y="-8" inkscape:window-x="-8" inkscape:window-height="837" inkscape:window-width="1600"
		inkscape:pageshadow="2" inkscape:pageopacity="0">
	</sodipodi:namedview>
	<title id="title6">Logo Estadão</title>
	<g id="Grupo_117" transform="matrix(2.2363727,0,0,2.2363727,103.99788,297.29427)" inkscape:export-ydpi="78.048103"
		inkscape:export-xdpi="78.048103" inkscape:export-filename="G:\Users\suitedoalex\sites\estadao-logo-4.png">
		<path id="Caminho_66" inkscape:connector-curvature="0" fill="var(--icon-color, #FFFFFF)" d="M220.576-9.96c-0.062,0.649-0.162,1.293-0.3,1.93
		c-0.152,0.632-1.589,4.185-1.694,4.772c-0.065,0.571-0.095,1.146-0.089,1.721c-0.436,0.191-1.439,0.939-1.971,0.939
		s-1.8-1.214-2.353-1.359c0-1.5,0.386-1.624,0.252-2.4c-0.217-0.898-0.531-1.77-0.936-2.6c-0.153-0.384-0.192-0.805-0.113-1.211
		c-0.221,0.321-0.306,0.717-0.235,1.1c0.138,0.829,0.8,2.077,0.894,2.624c0.094,0.547,0.066,1.175-0.141,1.314
		c-1.493-0.162-2.936-0.631-4.239-1.378c-1.006-0.576-2.043-1.095-3.108-1.553c0.634-1.335,1.432-2.586,2.375-3.725
		c0.782-0.945,1.714-1.756,2.759-2.4c1.431-0.721,3.032-1.036,4.629-0.91c0.976,0.11,1.941,0.3,2.885,0.57
		c0,0,0.924-0.767,1.632-0.526c-0.2,0.533-0.431,1.079-0.431,1.079l0.917,0.534c-0.275,0.476-0.519,0.969-0.732,1.476
		 M179.352,3.723c0.015,1.136,0.42,2.232,1.147,3.106c0.008,0.005,0.016,0.017,0.025,0.024c-0.229-0.741-0.416-1.493-0.558-2.255
		v-1.51c0.184-1.06,0.502-2.092,0.945-3.072c-0.008,0.006-0.008,0.013-0.013,0.013c-0.005,0-0.035,0.03-0.048,0.042
		c-0.388,0.379-0.712,0.818-0.96,1.3l-0.054,0.11c-0.27,0.562-0.43,1.171-0.47,1.793c-0.009,0.122-0.018,0.242-0.018,0.364
		c0,0.025,0.008,0.053,0.008,0.083 M204.441-4.301c0.079-0.045,0.144-0.109,0.189-0.187c0.131-0.202,0.25-0.411,0.355-0.628
		c0-0.4-0.837-0.357-1.014-0.5c-0.177-0.143-0.258-0.35-0.536-0.472l-0.013,0.042c-0.008,0.073-0.008,0.172-0.008,0.267
		c0.048,0.258,0.072,0.52,0.072,0.782c0.006,0.337-0.034,0.674-0.119,1c0.155,0.057,0.307,0.124,0.454,0.2
		c0.175-0.205,0.384-0.377,0.619-0.509 M204.341-7.353l-3.256-3.656l-2.111,1.762l0.081,0.257c0.073,0.181,0.157,0.358,0.252,0.528
		c0.107,0.183,0.225,0.36,0.354,0.528c0.145,0.19,0.303,0.369,0.474,0.537c0.025,0.025,0.054,0.046,0.075,0.07
		c0.462,0.434,1.006,0.772,1.6,0.995c0.348,0.128,0.714,0.199,1.084,0.209l1.452-1.231L204.341-7.353z M202.758-13.402v-0.963
		c0.013-0.113-0.024-0.226-0.1-0.31c-0.124-0.061-0.24-0.139-0.344-0.23c-0.037-0.028-0.072-0.064-0.1-0.091
		c-0.224,0.048-0.459,0.022-0.667-0.075c-0.118-0.039-0.227-0.1-0.323-0.178c-0.114-0.1-0.183-0.241-0.191-0.393
		c-0.108,0-0.213-0.013-0.314-0.025v0.626c0.008,0.025,0.011,0.055,0.018,0.077c0.12,0.418,0.039,0.869-0.22,1.219
		c-0.282,0.396-0.734,0.634-1.22,0.641c-0.021,0.183-0.018,0.368,0.008,0.55c0.023,0.166,0.2,0.62,0.267,0.866
		c0.155,0.441,0.243,0.902,0.262,1.368l0.481-0.405c-0.1-0.386-0.218-0.788-0.327-1.185c-0.075-0.273-0.152-0.54-0.218-0.8
		c0.541-0.107,1.013-0.436,1.3-0.907c0.273,0.095,0.552,0.168,0.837,0.22h0.846L202.758-13.402z M203.972-14.64
		c0.131-0.13,0.1-0.448-0.146-0.986c-0.09-0.116-0.191-0.224-0.3-0.322c-0.192,0.1-0.271,0.1-0.337,0.135
		c-0.051,0.086-0.108,0.167-0.17,0.245c-0.044,0.051-0.157,0.032-0.2,0.068c-0.065,0.162-0.177,0.302-0.321,0.4
		c0.186,0.172,0.402,0.307,0.638,0.4c0.16,0.063,0.7,0.184,0.834,0.063 M204.596-16.837c0.567-0.327,1.057-0.773,1.435-1.308
		c-0.104-0.036-0.204-0.081-0.3-0.135c-0.39-0.233-0.724-0.549-0.977-0.926c-0.344,0.823-0.884,1.55-1.574,2.116
		c0.033,0.066,0.06,0.136,0.08,0.207c0.007,0.021,0.012,0.043,0.016,0.066c0.036,0.181,0.038,0.368,0.008,0.55
		c0.462-0.131,0.906-0.322,1.318-0.57 M206.223-18.455c0,0,0.01,0,0.012-0.006c0.018-0.016,0.027-0.04,0.024-0.064
		c-0.076-0.306-0.252-0.579-0.5-0.773c-0.137-0.134-0.286-0.254-0.446-0.359c-0.174-0.107-0.311-0.151-0.39-0.123
		c-0.009,0.004-0.017,0.009-0.025,0.015c-0.007,0.011-0.013,0.024-0.016,0.037c-0.013,0.042-0.01,0.088,0.008,0.128
		c0.107,0.261,0.272,0.494,0.483,0.681c0.357,0.344,0.732,0.553,0.851,0.463 M202.816-17.038c0-0.008-0.823,0.065-0.823,0.065
		s-0.4,0.283-0.453,0.528c-0.011,0.169-0.011,0.34,0,0.509l1.286,0.025C203.034-16.258,203.03-16.693,202.816-17.038
		 M201.904-15.278c0.674,0.049,0.638-0.341,0.638-0.341l-1.165-0.018C201.378-15.637,201.23-15.318,201.904-15.278 M200.214-16.656
		c-0.104-0.113-0.228-0.207-0.365-0.276c-0.144,0.132-0.338,0.316-0.522,0.456c-0.008,0.007-0.008,0.013-0.018,0.013
		c-0.065,0.059-0.138,0.109-0.216,0.148c-0.131-0.129-0.225-0.29-0.273-0.467c-0.014-0.041-0.021-0.083-0.023-0.126
		c-0.012-0.126,0.056-0.246,0.17-0.3c0.138-0.052,0.271-0.114,0.4-0.184c0.017-0.098,0.062-0.19,0.129-0.264
		c-0.059-0.142-0.135-0.276-0.226-0.4l-0.35-0.207c-0.135-0.07-0.266-0.15-0.39-0.238c0,0.221,0.02,0.356,0.018,0.518v0.056
		c0,0.091,0.008,0.187,0.013,0.279c0,0.173,0.008,0.344,0.008,0.516h-0.3c0.001-0.057-0.001-0.115-0.008-0.172
		c0-0.1,0-0.184-0.008-0.282c-0.008-0.098-0.013-0.2-0.015-0.294c-0.021-0.387-0.054-0.758-0.087-1.111
		c-0.041-0.014-0.083-0.023-0.126-0.028c-0.075-0.013-0.152-0.021-0.227-0.034h-0.04c-0.06,0-0.116,0.006-0.173,0.006
		c-0.016,0.043,0.116,0.814,0.147,0.951c0.015,0.074,0.141,0.884,0.144,0.93v0.034h-0.284l-0.008,0.013
		c-0.06-0.356-0.126-0.7-0.207-1.031c-0.074-0.307-0.16-0.6-0.248-0.881c-0.272,0.034-0.538,0.104-0.792,0.206
		c-0.008,0.005-0.018,0.005-0.024,0.013c-0.175,0.075-0.339,0.172-0.49,0.288c-0.026,0.018-0.051,0.038-0.073,0.056
		c-0.103,0.107-0.2,0.22-0.291,0.338c-0.137,0.187-0.249,0.362-0.329,0.478c-0.049,0.07-0.049,0.165-0.1,0.271
		c-0.019,0.056-0.035,0.113-0.048,0.171c-0.011,0.062-0.02,0.124-0.025,0.187v0.011c0.016,0.005,0.031,0.011,0.046,0.018
		c0.1,0.025,0.186,0.049,0.278,0.065c0.24,0.051,0.484,0.076,0.729,0.076c0.021,0,0.045,0.005,0.066,0.005
		c0.117,0,0.233-0.005,0.349-0.017h0.008v0.017c0.095,0.366,0.285,0.701,0.55,0.971c0.206,0.221,0.452,0.399,0.726,0.525
		c0.062,0.029,0.127,0.052,0.193,0.07c0.038,0.013,0.074,0.026,0.115,0.038c-0.006,0.061-0.008,0.122-0.007,0.183
		c0,0.093,0,0.185-0.008,0.267l0.234,0.028c0-0.08,0.008-0.163,0.011-0.239c-0.001-0.033,0.001-0.067,0.008-0.1v-0.157
		c0-0.1,0-0.194,0.007-0.3v-0.165c0-0.1,0-0.2,0.008-0.3v-0.055c0-0.037,0.008-0.073,0.008-0.1v-0.1h0.291v0.26
		c0.021,0.025,0.044,0.047,0.065,0.074c0.004,0,0.007,0.002,0.008,0.006c0,0,0,0.001,0,0.001c0.107,0.115,0.216,0.242,0.321,0.361
		c0.031,0.038,0.063,0.075,0.093,0.108c0.008,0.006,0.015,0.013,0.02,0.022c0.012,0.013,0.023,0.027,0.034,0.042
		c0.079,0.092,0.158,0.187,0.228,0.282c0.089-0.054,0.173-0.117,0.25-0.187c0.07-0.061,0.132-0.13,0.186-0.206
		c0.027-0.035,0.052-0.072,0.075-0.11c0.031-0.051,0.059-0.104,0.084-0.159c0.014-0.038,0.034-0.074,0.048-0.111
		c0.01-0.017,0.018-0.036,0.023-0.055c0.027-0.075,0.059-0.149,0.094-0.221c0.047-0.117,0.129-0.216,0.236-0.283
		c-0.025-0.072-0.066-0.138-0.12-0.193 M196.214-6.351l-0.171-0.183c-0.039-0.044-0.075-0.086-0.111-0.123
		c0-0.01-0.015-0.019-0.02-0.028l-1.074,0.9l3.305,3.689l0.129-0.109l1.952-1.65c-0.639-0.183-1.253-0.443-1.829-0.774
		c-0.697-0.4-1.339-0.887-1.914-1.448c-0.014-0.013-0.027-0.028-0.038-0.044c-0.047-0.042-0.089-0.083-0.13-0.128
		c-0.035-0.031-0.069-0.065-0.1-0.1 M193.861-5.012l-0.015,0.013l0.977,0.785l2.4,1.939l0.183-0.214l-2.453-2.749l-0.069-0.073
		c0,0-0.018-0.007-0.011-0.019l-0.266-0.3l-0.747,0.614L193.861-5.012z M193.767-3.695l0.035,0.01l2.149,0.822l0.17,0.065
		l-1.973-1.571l-0.091-0.07L193.767-3.695z M178.812,10.75c-0.084-0.362-0.171-0.747-0.257-1.046l-0.665-2.31l-0.933-3.243
		c-0.727-2.536,0.739-5.182,3.275-5.909c0.424-0.122,0.862-0.184,1.303-0.185c0.229,0.001,0.458,0.017,0.685,0.049
		c0.154-0.016,0.307-0.039,0.459-0.07c0.074-0.015,0.147-0.037,0.217-0.065c0.055-0.017,0.111-0.037,0.162-0.058
		c0.1-0.038,0.2-0.083,0.311-0.133c0.177-0.08,0.361-0.159,0.537-0.232c0.857-0.381,1.762-0.644,2.69-0.78
		c1.151-0.164,2.32-0.145,3.466,0.055c0.681,0.121,1.349,0.309,1.993,0.562c0.245,0.086,0.496,0.154,0.751,0.2
		c0.414,0,0.45-0.436,0.962-0.436c0.241,0.055,0.474,0.139,0.694,0.252c0,0-0.069,0.1-0.072,0.1
		c-0.942,1.533-1.645,3.202-2.083,4.947c-0.01,0.03-0.019,0.061-0.025,0.092l-0.063,0.257c0,0,6.807,2.743,6.825,2.756
		c0.047-0.117,1.235-2.983,1.235-2.983s1.251,0.872,1.9,1.258c-0.028,0.521-0.024,1.044,0.011,1.565
		c0.113,2.031,0.479,5.042,0.591,5.977c0.1,0.117,0.17,0.231,0.329,0.231c0.159,0,1.922-0.186,2.405-0.837l-0.3-4.465l-0.22-3.272
		l-2.331-5.557l-0.362-0.862l-0.687,1.648l-2.821,6.764l-6.087-2.41c0-0.018,0.008-0.034,0.009-0.052
		c-0.001-0.007,0.002-0.014,0.009-0.017c0.003-0.026,0.009-0.051,0.018-0.075c0.455-1.831,1.203-3.576,2.216-5.167
		c0.028-0.077,0.047-0.117,0.047-0.124c0-0.135,0.008-0.11-0.032-0.141l-1.589-0.6l0.417-1.068l-0.4-0.323l0.107-0.092l0.4-0.328
		l0.615-0.509l0.745-0.623l0.331-0.276l0.122-0.1l-0.148-0.205c0,0-0.241-0.323-0.352-0.491c-0.249-0.369-0.468-0.759-0.654-1.164
		c-0.116-0.258-0.217-0.509-0.3-0.761c-0.041-0.092-0.07-0.189-0.087-0.288c-0.092-0.321-0.159-0.649-0.2-0.981
		c-0.027-0.19-0.04-0.381-0.041-0.572v-0.077c0.005-0.365,0.109-0.722,0.3-1.034c0.059-0.107,0.132-0.206,0.217-0.294l0.042-0.037
		c0.062-0.071,0.129-0.138,0.2-0.2c0.141-0.117,0.298-0.215,0.465-0.291c0.107-0.063,0.221-0.113,0.339-0.151
		c0.004,0,0.007-0.003,0.007-0.007l0,0c0.008-0.091,0.009-0.19,0.016-0.312c0.069,0.007,0.138,0.019,0.2,0.031
		c0.182,0.028,0.361,0.074,0.535,0.135c0.014,0.002,0.027,0.007,0.039,0.013c-0.055-0.349-0.465-0.417-0.6-0.61
		c-0.033-0.037-0.052-0.085-0.053-0.135c0-0.045,0.014-0.09,0.038-0.128c0.054-0.06,0.086-0.136,0.094-0.216
		c0.001-0.038-0.009-0.075-0.028-0.107c-0.014-0.034-0.038-0.063-0.068-0.084l-0.009-0.008c-0.023-0.016-0.047-0.03-0.072-0.042
		c-0.031-0.025-0.062-0.049-0.091-0.068c-0.041-0.037-0.079-0.077-0.116-0.113c-0.346-0.35-0.586-0.792-0.692-1.273
		c-0.009-0.038-0.011-0.074-0.021-0.117c-0.01-0.043-0.013-0.1-0.016-0.15c-0.014-0.162-0.011-0.326,0.008-0.488
		c0.009-0.046,0.015-0.1,0.024-0.147c0.107-0.529,0.389-1.008,0.8-1.357c0.115-0.096,0.236-0.184,0.362-0.264
		c0.01-0.006,0.019-0.013,0.027-0.021c0.15-0.091,0.309-0.166,0.474-0.224c0.028-0.011,0.057-0.021,0.086-0.028
		c0.018-0.008,0.037-0.012,0.057-0.014c0.154-0.049,0.311-0.086,0.471-0.111c0.14-0.021,0.282-0.034,0.424-0.037
		c0.093,0,0.189,0,0.276,0.007c0.038,0,0.08,0.01,0.114,0.013l0.093,0.009h0.229c0.083,0,0.173-0.006,0.273-0.006
		c0.024,0.033,0.047,0.063,0.068,0.1l0.024,0.035c0.078,0.135,0.14,0.261,0.183,0.344c0.008,0.013,0.011,0.02,0.02,0.025
		c0.021,0.034,0.046,0.065,0.075,0.092c0.242,0.224,0.645,0.288,0.735,0.488c0.09,0.2,0.432,0.893,0.432,0.893
		s0.724,0.817,0.724,0.853c0,0.154-0.008,0.225,0.1,0.337c0.147-0.041,0.291-0.089,0.432-0.144c0.007-0.114,0.02-0.227,0.038-0.34
		c0.013-0.028,0.518-0.691,0.784-0.67c0.068,0,0.963-0.073,0.967-0.073c0.795-0.626,1.347-1.51,1.56-2.5v-0.024
		c0.007-0.016,0.011-0.032,0.013-0.049c0.014-0.038,0.036-0.072,0.066-0.1c0.104-0.082,0.241-0.108,0.368-0.068
		c0.136,0.032,0.268,0.082,0.39,0.15c0.218,0.125,0.42,0.278,0.6,0.454c0.06,0.059,0.111,0.111,0.16,0.169
		c0.113,0.127,0.214,0.264,0.3,0.411c0.15,0.193,0.202,0.444,0.141,0.681l-0.022,0.031c-0.634,0.994-1.588,1.741-2.705,2.116
		c-0.031,0.014-0.061,0.03-0.089,0.049c0.222,0.213,0.386,0.48,0.475,0.774h1.183v3.4c0,0.053-0.008,0.1-0.011,0.148
		s-0.012,0.1-0.024,0.155c-0.008,0.031-0.012,0.063-0.022,0.1c-0.042,0.15-0.104,0.294-0.186,0.427
		c-0.018,0.029-0.039,0.053-0.057,0.083c-0.258,0.352-0.647,0.586-1.079,0.651c-0.078,0.013-0.159,0.018-0.241,0.024h-1.643l2.669,3
		c0,0-0.795,0.651-1.068,0.908c0.12,0.173,0.258,0.332,0.411,0.476c0.183,0.108,1.314,0.2,1.226,0.742
		c-0.008,0.063-0.023,0.124-0.044,0.184c-0.129,0.263-0.286,0.511-0.469,0.74c-0.185,0.239-0.571,0.26-0.7,0.657
		c0.195,0.129,0.342,0.319,0.42,0.539c0.647-0.752,1.219-1.566,1.708-2.43c1.371,0.347,4.673,2.188,5.541,2.458
		c0.617,0.166,1.245,0.287,1.88,0.361c-0.085,0.204-0.143,0.417-0.175,0.636c0.008,0.08,0.27,0.156,0.572,0.338
		c0.162,0.095,0.309,0.212,0.439,0.347c-0.063,0.758,0.046,1.52,0.32,2.23c0.102,0.243,0.19,0.492,0.261,0.746
		c0.026,0.08,0.044,0.16,0.066,0.246c0.042,0.187,0.079,0.38,0.111,0.579c0.037,0.252,0.063,0.507,0.075,0.765
		c0,0.067,0.008,0.134,0.008,0.2v0.288c0.001,0.061-0.002,0.122-0.008,0.182c-0.015,0.317-0.048,0.634-0.1,0.948
		c-0.015,0.067-0.026,0.135-0.043,0.208c-0.018,0.092-0.038,0.2-0.063,0.286c-0.084,0.348-0.196,0.688-0.335,1.017
		c-0.018,0.032-0.034,0.065-0.047,0.1c-0.009,0.025-0.018,0.043-0.024,0.063c-0.007,0.01-0.012,0.019-0.015,0.03
		c-0.034-0.006-0.066-0.021-0.1-0.03c-0.207-0.07-0.407-0.161-0.594-0.273c-0.122-0.077-0.242-0.157-0.356-0.246
		c-0.119-0.095-0.232-0.199-0.336-0.31c0.198,0.424,0.493,0.794,0.861,1.083c0.062,0.046,0.129,0.1,0.2,0.145
		c0.05,0.024,0.101,0.045,0.154,0.061c0.008,0,0.905,0.288,1.086,0.325c0.972,0.154,1.934,0.37,2.879,0.647
		c0.155,0.052,0.44-0.3,1.3-0.231c0.779,0.091,1.394,0.702,1.49,1.48c-0.018,0.57-0.261,0.708-0.342,1.037
		c-0.1,0.421-0.758,4.026-0.83,4.656c-0.047,0.4-0.059,0.972-0.059,0.979c0,0.058,0.159,0.736,0.173,0.966
		c0,0.046,0.008,0.077,0.008,0.123c0,0.104-0.008,0.207-0.026,0.31c-0.051,0.433-0.277,0.826-0.626,1.087
		c-0.008,0.021-0.012,0.043-0.021,0.064c-0.048,0.176-0.108,0.35-0.168,0.525c-0.323,0.882-0.828,1.686-1.484,2.359l-0.018-0.03
		l-1.308-2.5l-0.016-0.028c0.28-0.522,0.638-0.999,1.062-1.414c0.054-0.059,0.111-0.116,0.171-0.169
		c0.132-0.122,0.27-0.239,0.408-0.353c0-0.038-0.008-0.079-0.008-0.115c0.001-0.483,0.2-0.943,0.55-1.276
		c0.051-0.051,0.104-0.098,0.161-0.142c0-0.1,0.2-3.875,0.04-5.269c-0.526-0.081-1.029-0.269-1.48-0.552
		c-0.129-0.1-4.286,0.3-4.413,0.313c-0.127,0.013-0.474-0.156-0.716-0.152c-0.242,0.003-0.632,0.056-0.777,0.056
		c-0.275,0-0.543-0.087-0.766-0.249c-0.234-0.171-0.4-0.419-0.469-0.7c-0.019-0.062-0.031-0.127-0.035-0.192V8.418
		c0.002-0.045,0.006-0.09,0.013-0.134l0.024-0.136c0.03-0.112,0.076-0.22,0.136-0.319c-0.23-0.067-0.453-0.155-0.667-0.263
		c-0.202-0.103-0.396-0.22-0.581-0.351c-0.45-0.319-0.834-0.723-1.131-1.189c-0.101-0.161-0.191-0.328-0.27-0.5
		c0.256,1.054,0.912,1.967,1.829,2.547c-0.012,0.087-0.021,0.175-0.026,0.267c-0.007,0.166,0.009,0.332,0.045,0.494
		c0.074,0.349,0.241,0.672,0.482,0.936c0.28,0.309,0.645,0.528,1.05,0.629c-0.331,1.223-1.058,3.32-1.058,3.47
		c-0.306,0.945-0.692,1.862-1.155,2.741c-0.065,0.913-0.199,1.819-0.4,2.712c-0.031,0.196-0.048,0.394-0.05,0.592
		c0,0.157-0.084,1.124-0.141,2.682c0,0.133-0.051,0.154-0.051,0.31c0.007,0.13,0.051,0.255,0.126,0.362
		c0,0.006,0.013,0.015,0.018,0.024c0.054,0.074,0.111,0.145,0.164,0.217c0.072,0.1,0.144,0.2,0.213,0.3
		c0.16,0.24,0.305,0.49,0.434,0.749c0.065,0.13,0.125,0.259,0.181,0.387c0.033,0.055,0.06,0.114,0.081,0.175
		c0.228,0.562,0.382,1.151,0.46,1.752h-3.072c0.035-0.178,0.057-0.359,0.066-0.54c0.021-0.701-0.139-1.396-0.462-2.019
		c-0.117-0.316-0.286-0.61-0.5-0.869c0.044-0.449,0.126-0.894,0.245-1.329c0.186-0.509,0.421-0.999,0.7-1.463
		c0,0,0.194-3.7,0.194-3.856c0-0.156-0.263-1.492-0.372-2.174c-0.095-0.715-0.297-1.411-0.6-2.065
		c-0.071-0.135,0.331-0.513,0.454-0.74l-0.076-0.073c-0.018,0.001-0.036,0.003-0.054,0.007c-0.161,0.14-3.127,1.033-3.127,1.033
		c-0.272-0.365-0.579-0.702-0.918-1.006c-1.304-0.098-2.603-0.265-3.89-0.5c-1.844-0.334-3.658-0.818-5.423-1.448
		c-0.3-0.11-0.594-0.227-0.874-0.337c-0.013,0.013-0.024,0.029-0.031,0.045v0.156c-0.002,0.203-0.017,0.407-0.044,0.608
		c-0.076,0.773-0.283,1.527-0.612,2.23c-0.14,0.301-0.313,0.586-0.515,0.85l-0.037,0.074c0.137,0.274,0.238,0.565,0.3,0.865
		c0.043,0.19,0.072,0.382,0.088,0.575c0.016,0.238,0.016,0.477,0,0.715c1.269,1.529,2.429,3.145,3.473,4.836
		c0.008,0.012,0.016,0.024,0.023,0.037c0.474,0.292,0.753,0.818,0.729,1.375c-0.002,0.171-0.025,0.341-0.069,0.506
		c-0.052,0.185-0.136,0.359-0.249,0.513c0.045,0.179,0.082,0.35,0.111,0.535c0.063,0.389,0.086,0.784,0.069,1.178v0.037
		c-0.026,0.585-0.142,1.162-0.344,1.712c-0.047,0.109-0.101,0.214-0.162,0.316l-2.342-1.908l-0.057-0.043
		c0.107-0.281,0.232-0.555,0.375-0.819c0.152-0.279,0.318-0.55,0.5-0.811c-0.278-0.275-0.455-0.637-0.5-1.025
		c-0.007-0.069-0.011-0.137-0.01-0.206c0-0.058,0.008-0.125,0.01-0.187c0.016-0.411,0.146-0.809,0.377-1.149
		c-0.286-0.5-0.973-1.483-1.19-1.758c-0.411-0.516-0.863-0.998-1.352-1.442c-0.333-0.167-0.685-0.291-1.049-0.369
		c0.057,0.007-0.028-0.006,0,0c-0.174-0.019-0.72-0.108-0.72-0.108l-0.824-0.143l-0.052-0.007l0.2-0.645
		c0-0.011,0.008-0.024,0.008-0.042c0.028-0.239,0.028-0.482,0-0.721c-0.02-0.169-0.06-0.335-0.12-0.495
		c-0.021-0.055-0.047-0.1-0.069-0.157c-0.032-0.062-0.068-0.123-0.107-0.181c-0.013-0.013-0.024-0.027-0.034-0.043
		c-0.29-0.383-0.957-1.237-1.07-1.368c0.023-0.024,0.045-0.056,0.065-0.077l0.033-0.039c0.442-0.549,0.818-1.148,1.122-1.783
		c0.147-0.312,0.278-0.631,0.39-0.958c0.143-0.412,0.256-0.834,0.338-1.262c0.042-0.2,0.076-0.4,0.108-0.608
		c-0.001-0.019,0.002-0.038,0.008-0.056c0.138-0.092,0.273-0.193,0.4-0.3c0.367-0.292,0.693-0.633,0.969-1.012
		c0.174-0.235,0.327-0.485,0.458-0.746l0.079-0.165c-0.031,0.048-0.063,0.1-0.1,0.147c-0.447,0.631-1.025,1.159-1.694,1.547
		l-0.069,0.035c-0.057,0.037-0.115,0.07-0.176,0.1c-0.132,0.07-0.269,0.133-0.409,0.187c-0.026,0.194-0.062,0.381-0.1,0.565
		c-0.059,0.274-0.129,0.534-0.208,0.795c-0.068,0.228-0.15,0.452-0.235,0.669c-0.137,0.359-0.299,0.709-0.483,1.046
		c-0.207,0.386-0.443,0.755-0.707,1.105c-0.069,0.086-0.129,0.169-0.194,0.245c-0.517,0.638-1.13,1.193-1.816,1.645
		c-0.367,0.241-0.757,0.446-1.163,0.614c-0.119,0.048-0.233,0.1-0.35,0.135c-0.214,0.479-0.54,0.899-0.951,1.225
		c-0.22,0.151-0.417,0.331-0.588,0.536c-0.285,0.463-0.5,0.965-0.638,1.491c-0.236,0.858-0.423,1.729-0.559,2.609
		c0,0.147-0.063,0.778-0.063,0.932c0,0.154,0.446,1.648,0.446,1.811c-0.001,0.016,0.005,0.031,0.016,0.042
		c0.675,0.509,1.204,1.186,1.535,1.964c0.2,0.445,0.335,0.917,0.4,1.4h-2.611c-0.065-0.418-0.171-0.829-0.317-1.227
		c-0.244-0.671-0.602-1.295-1.058-1.845c-0.099-0.122-0.205-0.238-0.317-0.347c-0.043-0.076-0.065-0.162-0.066-0.249
		c-0.007-0.015-0.009-0.031-0.008-0.048c0.064-0.538,0.202-1.065,0.41-1.565c0.082-0.154,0.138-0.32,0.166-0.491
		c0-0.153,0.261-3.234,0.243-3.347c-0.258-0.785-0.596-1.541-1.01-2.256c0.151-0.196,0.318-0.379,0.5-0.546
		c0.4-0.302,0.692-0.725,0.834-1.206c0.027-0.135,0.141-0.147,0.141-0.3c0.005-0.051-0.006-0.102-0.032-0.147
		c-0.591,0.441-1.309,0.677-2.046,0.674c0.908-0.745,1.326-1.933,1.085-3.082c-0.009-0.05-0.018-0.1-0.031-0.142" />
		<path id="Caminho_67" inkscape:connector-curvature="0" fill="var(--icon-color, #FFFFFF)" d="M1.342,26.485v-37.514h19.172v6.339H8.341v8.623h9.281
		v6.339H8.341v9.872h12.68v6.339L1.342,26.485z" />
		<path id="Caminho_68" inkscape:connector-curvature="0" fill="var(--icon-color, #FFFFFF)" d="M39.127-0.585c-0.385-1.426-1.097-2.743-2.08-3.845
		c-0.808-0.798-1.907-1.231-3.043-1.2c-1.069-0.072-2.116,0.327-2.866,1.091c-0.7,0.843-1.053,1.921-0.989,3.014
		c0.008,0.954,0.434,1.856,1.166,2.468c0.886,0.788,1.855,1.476,2.891,2.052c1.149,0.659,2.4,1.359,3.753,2.1
		c1.341,0.738,2.6,1.617,3.753,2.624c1.162,1.021,2.14,2.234,2.891,3.585c0.813,1.534,1.215,3.252,1.166,4.988
		c0.025,1.513-0.24,3.017-0.781,4.43c-0.501,1.281-1.28,2.435-2.282,3.377c-1.059,0.971-2.312,1.706-3.677,2.156
		c-1.587,0.523-3.249,0.777-4.92,0.753c-2.692,0.062-5.32-0.82-7.43-2.494c-2.079-1.663-3.592-4.348-4.539-8.054l6.9-1.507
		c0.157,0.999,0.456,1.97,0.888,2.884c0.335,0.706,0.79,1.349,1.344,1.9c0.457,0.452,1.001,0.806,1.6,1.039
		c0.51,0.199,1.052,0.305,1.6,0.312c2.479-0.1,4.408-2.19,4.308-4.669c-0.043-1.053-0.454-2.058-1.163-2.839
		c-0.855-0.912-1.827-1.707-2.891-2.364c-1.15-0.728-2.401-1.446-3.753-2.156c-1.326-0.693-2.583-1.51-3.753-2.442
		c-1.133-0.9-2.11-1.981-2.891-3.2c-0.814-1.345-1.219-2.898-1.166-4.469c-0.157-2.832,0.84-5.606,2.764-7.69
		c1.842-1.871,4.589-2.806,8.242-2.806c1.432-0.02,2.856,0.208,4.21,0.675c1.207,0.425,2.326,1.069,3.3,1.9
		c0.948,0.816,1.746,1.792,2.358,2.883c0.637,1.139,1.107,2.364,1.395,3.637L39.127-0.585z" />
		<path id="Caminho_69" inkscape:connector-curvature="0" fill="var(--icon-color, #FFFFFF)" d="M70.12-11.029v6.339h-8.17v31.175h-7V-4.69h-8.166
		v-6.339H70.12z" />
		<path id="Caminho_70" inkscape:connector-curvature="0" fill="var(--icon-color, #FFFFFF)" d="M65.551,26.485l9.078-37.514h8.977l8.825,37.514h-6.694
		l-1.775-7.9h-9.687l-1.978,7.9H65.551z M75.542,12.248h6.948l-3.4-15.172h-0.1L75.542,12.248z" />
		<path id="Caminho_71" inkscape:connector-curvature="0" fill="var(--icon-color, #FFFFFF)" d="M93.903-11.029h9.738c1.8-0.027,3.594,0.209,5.326,0.7
		c1.481,0.426,2.837,1.202,3.955,2.262c1.138,1.129,1.997,2.508,2.51,4.027c0.641,1.936,0.975,3.961,0.989,6v11.536
		c-0.014,2.039-0.348,4.064-0.989,6c-0.512,1.52-1.372,2.898-2.51,4.027c-1.118,1.06-2.475,1.835-3.956,2.26
		c-1.732,0.491-3.526,0.727-5.326,0.7h-9.738L93.903-11.029z M100.902,20.146h2.435c1.659,0.101,3.285-0.492,4.489-1.637
		c1.067-1.091,1.6-3.04,1.6-5.845V2.792c0-2.667-0.465-4.581-1.395-5.742c-0.93-1.161-2.494-1.742-4.691-1.741h-2.435
		L100.902,20.146z" />
		<path id="Caminho_72" inkscape:connector-curvature="0" fill="var(--icon-color, #FFFFFF)" d="M116.32,26.487l9.079-37.514h8.977l8.825,37.514h-6.695
		l-1.775-7.9h-9.687l-1.978,7.9H116.32z M139.042-20.12c-0.161,0.803-0.381,1.593-0.659,2.364c-0.253,0.711-0.603,1.384-1.04,2
		c-0.419,0.583-0.966,1.063-1.6,1.4c-0.722,0.365-1.524,0.544-2.333,0.52c-0.677,0-1.35-0.097-2-0.286
		c-0.659-0.19-1.293-0.398-1.9-0.623c-0.607-0.225-1.207-0.433-1.8-0.623c-0.565-0.186-1.155-0.282-1.75-0.286
		c-0.579-0.027-1.14,0.212-1.521,0.65c-0.376,0.44-0.638,0.967-0.761,1.533h-3.2c0.131-0.816,0.343-1.617,0.634-2.39
		c0.27-0.732,0.655-1.416,1.141-2.026c0.463-0.579,1.042-1.056,1.7-1.4c0.732-0.362,1.541-0.541,2.358-0.519
		c0.679,0.001,1.353,0.106,2,0.312c0.659,0.208,1.293,0.424,1.9,0.649c0.607,0.225,1.182,0.441,1.725,0.65
		c0.451,0.189,0.932,0.295,1.42,0.312c0.584,0.01,1.146-0.226,1.547-0.65c0.425-0.437,0.715-0.987,0.837-1.584L139.042-20.12z
		 M126.312,12.25h6.948l-3.4-15.172h-0.1L126.312,12.25z" />
		<path id="Caminho_73" inkscape:connector-curvature="0" fill="var(--icon-color, #FFFFFF)" d="M143.307,1.022c-0.05-1.992,0.241-3.979,0.863-5.872
		c0.489-1.455,1.303-2.779,2.383-3.871c1.031-0.996,2.282-1.735,3.652-2.156c3.045-0.901,6.287-0.901,9.332,0
		c1.37,0.421,2.622,1.159,3.652,2.156c1.079,1.092,1.894,2.416,2.383,3.871c0.621,1.894,0.913,3.88,0.862,5.872v13.409
		c0.051,1.992-0.241,3.977-0.862,5.871c-0.489,1.455-1.304,2.779-2.383,3.871c-1.03,0.996-2.282,1.735-3.652,2.156
		c-3.045,0.901-6.287,0.901-9.332,0c-1.37-0.421-2.622-1.159-3.652-2.156c-1.079-1.091-1.895-2.416-2.383-3.871
		c-0.622-1.893-0.914-3.879-0.863-5.871V1.022z M150.308,15.363c0,2.079,0.406,3.482,1.217,4.209c1.995,1.455,4.7,1.455,6.695,0
		c0.811-0.727,1.217-2.13,1.217-4.209V0.091c0-2.079-0.406-3.481-1.217-4.208c-1.995-1.455-4.701-1.455-6.695,0
		c-0.811,0.727-1.217,2.13-1.217,4.208V15.363z" />
	</g>
</svg>