<svg xmlns="http://www.w3.org/2000/svg" width="18" height="18" viewBox="0 0 18 18" fill="none">
  <path
    d="M1.5 9.03769C1.5 12.7688 4.2 15.8593 7.7625 16.5L7.80686 16.4635C7.80467 16.4631 7.80248 16.4627 7.80029 16.4623V11.1483H5.92529V9.03771H7.80029V7.37942C7.80029 5.49499 9.00029 4.43972 10.7253 4.43972C11.2503 4.43972 11.8503 4.51509 12.3753 4.59047V6.51258H11.4003C10.5003 6.51258 10.2753 6.96484 10.2753 7.56786V9.03771H12.2628L11.9253 11.1483H10.2753V16.4623C10.2524 16.4665 10.2295 16.4706 10.2065 16.4745L10.2375 16.5C13.8 15.8593 16.5 12.7688 16.5 9.03769C16.5 4.89196 13.125 1.5 9 1.5C4.875 1.5 1.5 4.89196 1.5 9.03769Z"
    fill="white"></path>
</svg>