<svg width="84.722%" height="100%" viewBox="0 0 61 72" fill="none" xmlns="http://www.w3.org/2000/svg"><g clip-path="url(#112762299_clip0_3870_772)"><path fill-rule="evenodd" clip-rule="evenodd" d="M58.6247 -0.00756836C58.7885 -0.00756836 58.9523 -0.00756836 59.1161 -0.00756836C60.0079 0.167202 60.5961 0.690132 60.8809 1.56122C60.9309 1.74 60.9682 1.91929 60.9926 2.09909C60.9926 19.2412 60.9926 36.3834 60.9926 53.5255C60.8453 54.1143 60.5077 54.56 59.9799 54.8627C59.6785 55.0299 59.3557 55.1246 59.0119 55.1466C56.9217 55.1613 54.8318 55.1563 52.7421 55.1317C51.8313 54.9699 51.243 54.4445 50.9773 53.5554C50.9477 53.4224 50.9279 53.288 50.9178 53.152C50.9128 40.4124 50.9078 27.6729 50.9029 14.9333C49.6307 15.6947 48.3574 16.4541 47.0829 17.2118C46.2512 17.6023 45.4718 17.5176 44.7448 16.9578C44.3175 16.5789 44.0767 16.1033 44.0225 15.5309C44.0125 13.5039 44.0125 11.477 44.0225 9.44999C44.1032 8.73243 44.4483 8.18709 45.0575 7.81397C49.3043 5.31265 53.5487 2.80757 57.7907 0.298719C58.0503 0.141426 58.3282 0.0393301 58.6247 -0.00756836Z" fill="var(--icon-color, white)"/><path fill-rule="evenodd" clip-rule="evenodd" d="M18.7125 71.9925C18.0919 71.9925 17.4715 71.9925 16.851 71.9925C11.7341 71.7352 6.95853 70.3233 2.52429 67.7568C2.10977 67.5065 1.69775 67.2525 1.28821 66.9948C0.370136 66.3983 0.0598734 65.5691 0.357422 64.5071C0.408228 64.3492 0.467798 64.1949 0.536133 64.044C1.39874 62.348 2.25755 60.6497 3.11255 58.9491C3.58177 58.1698 4.26434 57.8685 5.16028 58.0452C5.36877 58.1 5.56734 58.1797 5.75598 58.2843C7.23358 59.2647 8.79232 60.1065 10.4323 60.8093C13.6448 62.1571 16.9708 62.5556 20.4103 62.0045C21.8516 61.7716 23.1919 61.2736 24.4313 60.5105C25.9377 59.512 27.0373 58.1747 27.73 56.4988C28.2007 55.337 28.5035 54.1318 28.6384 52.8831C28.7211 52.1882 28.7607 51.491 28.7576 50.7914C26.7883 52.8628 24.403 54.2201 21.6017 54.8628C20.3595 55.1314 19.1036 55.236 17.8339 55.1766C14.2299 55.0603 10.9336 54.0045 7.94519 52.0091C4.73015 49.7611 2.46401 46.7804 1.14673 43.067C0.453625 41.0561 0.0689005 38.9893 -0.00744629 36.8665C-0.00744629 36.3187 -0.00744629 35.7709 -0.00744629 35.223C0.154254 31.1331 1.39282 27.4129 3.70825 24.0622C5.70447 21.2524 8.25854 19.1184 11.3705 17.6601C14.1131 16.4095 16.9874 15.8917 19.9933 16.1062C22.8404 16.4219 25.3822 17.4627 27.6183 19.2289C28.2159 19.7138 28.7595 20.2542 29.249 20.8499C29.2539 20.0681 29.259 19.2861 29.2639 18.5042C29.3658 17.4159 29.959 16.8208 31.0436 16.7188C33.0789 16.7088 35.1142 16.7088 37.1495 16.7188C37.6268 16.7529 38.0364 16.9347 38.3782 17.2641C38.694 17.6369 38.8579 18.0702 38.8696 18.564C38.8796 28.4149 38.8796 38.2661 38.8696 48.117C38.8583 50.5044 38.6547 52.8751 38.259 55.2289C37.8919 57.4098 37.2664 59.5114 36.3826 61.5339C34.1377 66.4775 30.3971 69.6625 25.161 71.0886C23.5976 71.506 22.0091 71.775 20.3954 71.8954C19.8326 71.9371 19.2716 71.9693 18.7125 71.9925ZM19.1593 25.7057C21.5621 25.6666 23.6817 26.4111 25.5184 27.9394C27.043 29.2963 28.0581 30.9721 28.564 32.967C29.1128 35.2147 29.0383 37.4409 28.3406 39.6455C27.6013 41.8209 26.2733 43.5317 24.3568 44.7777C22.3782 45.9717 20.2435 46.3999 17.953 46.0626C15.3437 45.6125 13.2662 44.3201 11.7205 42.1855C10.5353 40.4411 9.90982 38.5088 9.84399 36.3884C9.77772 34.7304 10.0507 33.1318 10.6631 31.5924C11.8045 28.9134 13.7479 27.103 16.4935 26.1614C17.3639 25.8898 18.2525 25.7378 19.1593 25.7057Z" fill="var(--icon-color, white)"/></g><defs><clipPath id="112762299_clip0_3870_772"><rect width="61" height="72" fill="var(--icon-color, white)"/></clipPath></defs></svg>