<svg width="21" height="20" viewBox="0 0 21 20" fill="none" xmlns="http://www.w3.org/2000/svg">
  <path
    d="M17.5215 8.92074L4.41337 1.41762C4.22192 1.30658 4.00441 1.2484 3.78309 1.24903C3.56177 1.24966 3.34458 1.30908 3.15377 1.42121C2.96533 1.52846 2.80878 1.68385 2.70013 1.87149C2.59148 2.05911 2.53463 2.27224 2.53541 2.48906V17.5115C2.53463 17.7283 2.59148 17.9414 2.70013 18.1291C2.80878 18.3167 2.96533 18.4721 3.15377 18.5793C3.34458 18.6915 3.56177 18.7509 3.78309 18.7515C4.00442 18.7522 4.22193 18.694 4.41338 18.5829L17.5215 11.0798C17.7149 10.9737 17.8763 10.8174 17.9887 10.6275C18.1011 10.4376 18.1604 10.221 18.1604 10.0002C18.1604 9.77958 18.1011 9.56299 17.9887 9.37308C17.8763 9.18316 17.7149 9.02691 17.5215 8.92074ZM11.3 10.8842L12.7731 12.3573L5.88326 16.3008L11.3 10.8842ZM5.88238 3.69877L12.7732 7.64317L11.3 9.11641L5.88238 3.69877ZM13.8974 11.7138L12.1838 10.0002L13.8975 8.28667L16.8912 10.0002L13.8974 11.7138Z"
    fill="#D1E500" />
</svg>