<svg xmlns="http://www.w3.org/2000/svg" width="18" height="18" viewBox="0 0 18 18" fill="none">
  <path
    d="M8.99996 3.46623C10.8023 3.46623 11.0157 3.47312 11.7276 3.50559C12.3857 3.53563 12.7431 3.64556 12.981 3.738C13.2741 3.84621 13.5393 4.01875 13.7571 4.24293C13.9813 4.46066 14.1538 4.72587 14.262 5.01905C14.3544 5.2569 14.4644 5.6143 14.4944 6.27242C14.5269 6.9842 14.5338 7.19766 14.5338 9.00004C14.5338 10.8024 14.5269 11.0158 14.4944 11.7277C14.4644 12.3858 14.3544 12.7432 14.262 12.981C14.1497 13.2721 13.9777 13.5365 13.7571 13.7572C13.5364 13.9778 13.2721 14.1498 12.981 14.2621C12.7431 14.3545 12.3857 14.4645 11.7276 14.4945C11.0159 14.527 10.8025 14.5338 8.99996 14.5338C7.19745 14.5338 6.98406 14.527 6.27234 14.4945C5.61422 14.4645 5.25684 14.3545 5.01897 14.2621C4.72579 14.1539 4.46058 13.9813 4.24285 13.7571C4.01867 13.5394 3.84613 13.2742 3.73792 12.981C3.64548 12.7432 3.53552 12.3858 3.50551 11.7277C3.47304 11.0159 3.46615 10.8024 3.46615 9.00004C3.46615 7.19766 3.47304 6.98425 3.50551 6.27242C3.53555 5.6143 3.64548 5.25692 3.73792 5.01905C3.84614 4.72585 4.0187 4.46064 4.24291 4.24291C4.46064 4.01872 4.72584 3.84618 5.01902 3.73798C5.25687 3.64554 5.61428 3.53557 6.27239 3.50556C6.98417 3.47309 7.19764 3.4662 9.00001 3.4662M9.00001 2.25C7.16683 2.25 6.93688 2.25777 6.21703 2.29062C5.49855 2.32342 5.0079 2.4375 4.57856 2.60438C4.12817 2.77387 3.72017 3.03956 3.38301 3.38293C3.03956 3.72006 2.77379 4.12807 2.60424 4.57847C2.4375 5.00785 2.32342 5.4985 2.29075 6.21698C2.25777 6.93683 2.25 7.16677 2.25 8.99996C2.25 10.8331 2.25777 11.0631 2.29075 11.7829C2.32355 12.5014 2.43764 12.9921 2.60451 13.4214C2.774 13.8718 3.03969 14.2798 3.38306 14.617C3.72022 14.9603 4.12822 15.226 4.57861 15.3955C5.00798 15.5624 5.49863 15.6765 6.21709 15.7093C6.93704 15.7421 7.1669 15.7499 9.00007 15.7499C10.8332 15.7499 11.0632 15.7421 11.783 15.7093C12.5015 15.6765 12.9922 15.5624 13.4215 15.3955C13.8699 15.2221 14.2771 14.9569 14.6171 14.617C14.957 14.277 15.2222 13.8698 15.3956 13.4214C15.5625 12.992 15.6766 12.5014 15.7094 11.7829C15.7422 11.063 15.75 10.8331 15.75 8.99996C15.75 7.1668 15.7422 6.93683 15.7094 6.21698C15.6766 5.4985 15.5625 5.00785 15.3956 4.5785C15.2261 4.12811 14.9604 3.72011 14.6171 3.38296C14.2799 3.03952 13.8719 2.77377 13.4214 2.60424C12.9921 2.4375 12.5014 2.32342 11.7829 2.29075C11.0631 2.25777 10.8331 2.25 8.99996 2.25H9.00001Z"
    fill="white"></path>
  <path
    d="M8.99998 5.53376C8.31443 5.53376 7.64427 5.73705 7.07426 6.11792C6.50425 6.49879 6.05998 7.04014 5.79763 7.6735C5.53528 8.30687 5.46664 9.00381 5.60038 9.67618C5.73412 10.3486 6.06425 10.9662 6.54901 11.4509C7.03376 11.9357 7.65138 12.2658 8.32376 12.3996C8.99613 12.5333 9.69307 12.4647 10.3264 12.2023C10.9598 11.94 11.5011 11.4957 11.882 10.9257C12.2629 10.3557 12.4662 9.68551 12.4662 8.99996C12.4662 8.08067 12.101 7.19903 11.451 6.54899C10.8009 5.89895 9.91927 5.53376 8.99998 5.53376ZM8.99998 11.2499C8.55498 11.2499 8.11997 11.118 7.74997 10.8707C7.37997 10.6235 7.09159 10.2721 6.9213 9.86097C6.75101 9.44984 6.70645 8.99745 6.79327 8.561C6.88009 8.12455 7.09438 7.72364 7.40905 7.40898C7.72371 7.09432 8.12462 6.88004 8.56107 6.79322C8.99752 6.70641 9.44991 6.75097 9.86104 6.92126C10.2722 7.09156 10.6236 7.37994 10.8708 7.74995C11.118 8.11995 11.25 8.55496 11.25 8.99996C11.25 9.59669 11.0129 10.169 10.591 10.5909C10.169 11.0129 9.59671 11.2499 8.99998 11.2499Z"
    fill="white"></path>
  <path
    d="M12.6031 6.2068C13.0505 6.2068 13.4131 5.84416 13.4131 5.39682C13.4131 4.94947 13.0505 4.58683 12.6031 4.58683C12.1558 4.58683 11.7931 4.94947 11.7931 5.39682C11.7931 5.84416 12.1558 6.2068 12.6031 6.2068Z"
    fill="white"></path>
</svg>