<svg xmlns="http://www.w3.org/2000/svg" width="18" height="18" viewBox="0 0 18 18" fill="none">
  <path d="M9.50947 8.31797V8.33897H9.49586C9.50033 8.33202 9.50487 8.32502 9.50947 8.31797Z" fill="white"></path>
  <path fill-rule="evenodd" clip-rule="evenodd"
    d="M3.24762 2.25C2.69664 2.25 2.25 2.68311 2.25 3.21706V14.7829C2.25 15.3171 2.69664 15.75 3.24762 15.75H14.7524C15.3033 15.75 15.75 15.3171 15.75 14.7829V3.21706C15.75 2.68311 15.3033 2.25 14.7524 2.25H3.24762ZM6.3424 13.5509V7.45489H4.30334V13.5509H6.3424ZM5.32286 6.62259C6.03392 6.62259 6.47649 6.15448 6.47649 5.56949C6.46324 4.97132 6.03392 4.5162 5.33635 4.5162C4.63885 4.5162 4.1828 4.97132 4.1828 5.56949C4.1828 6.15448 4.62529 6.62259 5.30957 6.62259H5.32286ZM7.47038 13.5509H9.50942V10.1466C9.50942 9.96444 9.52267 9.78243 9.57651 9.65219C9.72391 9.28817 10.0594 8.91116 10.6227 8.91116C11.3606 8.91116 11.6557 9.47018 11.6557 10.2897V13.5509H13.6946V10.0555C13.6946 8.18312 12.6886 7.31185 11.3471 7.31185C10.2654 7.31185 9.78045 7.90259 9.50947 8.31797V7.45489H7.47044C7.49719 8.0269 7.47038 13.5509 7.47038 13.5509Z"
    fill="white"></path>
</svg>