<svg width="100%" height="28.571%" viewBox="0 0 140 40" fill="none" xmlns="http://www.w3.org/2000/svg">
  <path
    d="M22.9279 23.8861L20.1099 12.4948C19.8498 11.4193 18.7659 10.7828 17.7254 11.0681L6.47492 13.9215C5.43442 14.1848 4.7841 15.2384 5.0659 16.3139L7.88394 27.7052C8.14407 28.7807 9.22793 29.4172 10.2684 29.1318L19.6547 26.7614C19.633 26.7394 19.6113 26.7175 19.5896 26.6955C19.1994 26.2785 18.6358 26.1029 17.9205 26.1249L12.5012 26.059C11.0488 26.059 10.6153 24.9836 10.5936 24.4129L10.16 20.2646H8.70768C8.46923 20.2646 8.27413 20.0671 8.27413 19.8256C8.27413 19.7159 8.31749 19.5842 8.4042 19.5184L13.6067 14.4263C13.7585 14.2726 14.0186 14.2507 14.1703 14.4043L19.6547 19.2989C19.8498 19.4525 19.8714 19.7378 19.7197 19.8915C19.633 20.0012 19.5029 20.0671 19.3729 20.0451H18.224V23.9739C18.224 24.2154 18.0289 24.4129 17.7904 24.4129L14.8857 24.3909L14.0186 21.9766L13.1298 23.3155V18.1795L16.3814 22.0863L14.864 21.7571C14.864 21.7571 15.1675 22.7667 15.3843 23.513H17.4219V19.6281C17.4219 19.3867 17.617 19.1891 17.8555 19.1891H18.289L13.9319 15.3262L9.79154 19.4086H10.5936C10.8104 19.4086 11.0055 19.5842 11.0271 19.8037L11.4607 24.3251C11.4607 24.4568 11.5474 25.1591 12.5229 25.1591L17.9205 25.203C18.9176 25.1591 19.6763 25.4445 20.24 26.081C20.37 26.2127 20.4784 26.3663 20.5651 26.52L21.5189 26.2785C22.5594 26.0151 23.1881 24.9616 22.9279 23.8861Z"
    fill="var(--icon-color, #BEBEBE)"></path>
  <path
    d="M37.6251 24.5885V19.1013C37.6251 18.2234 37.5167 17.6308 37.2782 17.3015C37.0398 16.9723 36.6496 16.8406 36.0426 16.8406C35.4573 16.7967 34.8287 17.0382 34.4385 17.4771C34.0483 17.9161 33.8749 18.5307 33.8749 19.2989V24.5665H32.4009V19.1013C32.4009 18.2234 32.2925 17.6308 32.054 17.3015C31.8156 16.9723 31.4254 16.8406 30.8184 16.8406C30.2331 16.7967 29.6045 17.0382 29.2143 17.4771C28.8241 17.9161 28.6507 18.5307 28.6507 19.2989V24.5665H27.22V15.5018H28.5857V16.9943C29.1276 16.0505 30.1681 15.5237 31.252 15.5676C32.2491 15.5237 33.1379 16.0285 33.5931 16.9504C33.9183 16.5114 34.3518 16.1602 34.8287 15.8968C35.2839 15.6773 35.8475 15.5457 36.3461 15.5676C36.823 15.5457 37.3433 15.6554 37.7768 15.8749C38.167 16.0724 38.5138 16.3578 38.7306 16.7528C38.8607 16.9943 38.9474 17.2576 38.9907 17.543C39.0558 18.0039 39.0774 18.5307 39.0774 18.9916V24.5885H37.6251ZM46.9029 22.5034V18.2453C46.9029 17.3454 46.6211 16.665 46.0792 16.248C45.5589 15.831 44.6918 15.6115 43.5429 15.6115C42.4591 15.6115 41.6354 15.8529 41.0284 16.3578C40.4431 16.8406 40.0746 17.6088 40.1179 18.399V18.4648H41.4836C41.4619 18.0258 41.6354 17.5649 41.9822 17.3015C42.329 17.0601 42.8276 16.9065 43.4779 16.9065C44.1282 16.9065 44.6051 17.0162 44.9086 17.2138C45.2338 17.4332 45.3855 17.8064 45.3638 18.2014C45.3855 18.4209 45.3638 18.6404 45.2771 18.8599C45.2121 18.9916 45.082 19.0794 44.952 19.1013C44.5184 19.2111 44.0632 19.2989 43.5863 19.3208L42.5675 19.4306C41.5703 19.5623 40.855 19.8256 40.3347 20.2866C39.8578 20.7475 39.576 21.4279 39.5977 22.0863C39.5977 22.8765 39.8361 23.513 40.3347 23.952C40.8116 24.3909 41.527 24.6543 42.3941 24.6543C42.936 24.6543 43.4996 24.5446 43.9982 24.3251C44.5184 24.0837 45.0387 23.7105 45.4072 23.2716V23.3374C45.3855 23.6666 45.5156 24.1495 45.7757 24.369C46.0575 24.5885 46.426 24.6763 46.7945 24.6543C46.9029 24.5885 46.9029 22.5912 46.9029 22.5034ZM45.3855 21.3401C45.4072 21.9327 45.1254 22.4814 44.6268 22.8326C44.0849 23.2277 43.3912 23.4472 42.7192 23.4033C42.3073 23.4252 41.8955 23.3155 41.5703 23.074C41.2885 22.8326 41.1368 22.4814 41.1585 22.0863C41.1368 21.7352 41.2668 21.384 41.5053 21.1206C41.8304 20.8792 42.2206 20.7036 42.6542 20.6597C42.8276 20.6377 43.066 20.5938 43.4129 20.5499C44.345 20.4402 44.9953 20.2866 45.3855 20.0671V21.3401ZM55.6605 12.6265V24.5885H54.2732V23.2496C53.9263 23.6666 53.4928 24.0178 53.0159 24.2592C52.539 24.5007 51.9971 24.5885 51.4985 24.5885C50.4363 24.6324 49.4175 24.1934 48.7672 23.3813C48.0735 22.5692 47.7267 21.4718 47.7267 20.111C47.7267 18.7502 48.0735 17.6088 48.7672 16.7967C49.4175 15.9846 50.4363 15.5237 51.4985 15.5676C52.0187 15.5676 52.604 15.6773 53.0809 15.8749C53.5361 16.0944 53.9697 16.4455 54.2948 16.8626V12.6484H55.6605V12.6265ZM54.3382 20.0012C54.3382 18.9477 54.1214 18.1575 53.7096 17.6088C53.276 17.0821 52.6257 16.8187 51.802 16.8187C51.0649 16.7748 50.3713 17.104 49.916 17.6966C49.4608 18.2673 49.2657 19.1013 49.2657 20.1988C49.2657 21.1645 49.5042 21.9108 49.9594 22.4814C50.4146 23.0301 51.13 23.3594 51.8236 23.3155C52.5607 23.3594 53.2327 23.0521 53.6879 22.4595C54.0997 21.8669 54.3382 21.0767 54.3382 20.0012ZM62.7273 21.5815H64.1363C64.0279 22.4595 63.5944 23.2277 62.9007 23.7983C62.1853 24.347 61.2966 24.6543 60.3861 24.6104C59.1939 24.6104 58.2401 24.2154 57.5681 23.4252C56.8744 22.6351 56.5276 21.5596 56.5276 20.1988C56.5276 18.7502 56.8744 17.6308 57.5681 16.7967C58.2618 15.9627 59.1939 15.5896 60.3861 15.5896C61.5784 15.5896 62.5972 15.9627 63.2475 16.7309C63.8979 17.4771 64.2664 18.5307 64.2664 19.8915V20.2646C64.2664 20.3524 64.2664 20.4402 64.2447 20.4841H58.045C58.0667 21.384 58.2834 22.0644 58.6953 22.5473C59.5841 23.4033 60.9497 23.5349 61.9252 22.8106C62.3804 22.5253 62.6189 22.0644 62.7273 21.5815ZM58.0233 19.2989H62.749C62.749 18.5087 62.5539 17.8942 62.1637 17.4771C61.7518 17.0601 61.1882 16.8406 60.4728 16.8406C59.8659 16.8187 59.2372 17.0382 58.8037 17.4771C58.3268 17.8722 58.0884 18.5087 58.0233 19.2989ZM64.9167 14.3165V12.6484H66.3474V14.2946H64.9167V14.3165ZM64.9167 15.5018H66.3474V24.6104H64.9167V15.5018ZM67.583 24.5885V15.7212H68.9703V17.3015C69.1437 16.7748 69.4689 16.2919 69.9024 15.9627C70.336 15.6554 70.8346 15.5018 71.3331 15.5237H71.5716C71.6149 15.5237 71.6583 15.5237 71.7233 15.5457V17.126L71.5933 17.104H71.3765C70.5961 17.104 70.0108 17.3235 69.6206 17.7405C69.2088 18.1575 69.0353 18.816 69.0353 19.6281V24.5665L67.583 24.5885ZM79.8739 24.5885V15.7651H82.1067V16.7528C82.4102 16.3797 82.757 16.0505 83.2122 15.831C83.6241 15.6115 84.0793 15.5237 84.5562 15.5237C85.0331 15.5018 85.5317 15.6115 85.9652 15.831C86.3771 16.0724 86.7456 16.3797 86.9841 16.8187C87.526 15.9846 88.4581 15.4798 89.4553 15.5018C90.344 15.5018 91.016 15.7651 91.558 16.2919C92.0999 16.8187 92.3383 17.521 92.3383 18.4429V24.6104H90.0406V18.9477C90.0622 18.5746 89.9322 18.2234 89.6937 17.9381C89.4336 17.6966 89.1084 17.5649 88.7399 17.5869C88.3281 17.5649 87.9379 17.7405 87.6561 18.0478C87.3743 18.399 87.2225 18.8379 87.2442 19.2769V24.6104H84.9464V18.9477C84.9681 18.5746 84.8597 18.2234 84.6213 17.9381C84.3828 17.6966 84.0576 17.5649 83.6891 17.5869C83.2773 17.5649 82.8871 17.7405 82.6053 18.0478C82.3235 18.399 82.1717 18.8379 82.2151 19.2989V24.6324L79.8739 24.5885ZM109.55 12.6265V24.5885H107.317V23.1179C107.035 23.5569 106.667 23.952 106.168 24.2373C105.713 24.4568 105.193 24.5885 104.694 24.5885C103.654 24.6104 102.678 24.1495 102.093 23.3374C101.443 22.5034 101.096 21.4059 101.096 20.0451C101.096 18.6843 101.421 17.5649 102.093 16.7309C102.678 15.8968 103.632 15.4359 104.673 15.4579C105.171 15.4579 105.713 15.5676 106.168 15.7871C106.624 16.0066 106.992 16.3797 107.274 16.8187V12.6484H109.55V12.6265ZM103.459 19.9354C103.459 20.8133 103.632 21.4718 103.936 21.9108C104.261 22.3497 104.803 22.6351 105.366 22.5692C105.908 22.5912 106.472 22.3497 106.775 21.9108C107.101 21.4718 107.252 20.7914 107.252 19.9354C107.252 19.0794 107.079 18.4868 106.754 18.0478C106.407 17.6088 105.865 17.3893 105.323 17.3893C104.803 17.3674 104.261 17.6088 103.957 18.0478C103.61 18.5307 103.459 19.1452 103.459 19.9354ZM116.032 21.7352H118.329C118.134 22.5912 117.614 23.3374 116.92 23.8642C116.162 24.3909 115.251 24.6763 114.319 24.6324C113.04 24.6324 112.043 24.2154 111.328 23.3813C110.612 22.5473 110.222 21.4279 110.222 20.0012C110.222 18.5746 110.591 17.4771 111.328 16.687C112.065 15.8749 113.04 15.4798 114.297 15.4798C115.641 15.4798 116.66 15.8749 117.397 16.665C118.156 17.4552 118.503 18.5746 118.503 20.0671V20.4182C118.503 20.506 118.503 20.5719 118.481 20.6377H112.672C112.693 21.2962 112.867 21.823 113.148 22.1522C113.495 22.5034 113.972 22.7009 114.449 22.657C114.796 22.679 115.143 22.5912 115.446 22.4375C115.685 22.2619 115.923 21.9985 116.032 21.7352ZM112.628 19.1452H116.053C116.075 18.6624 115.901 18.1795 115.598 17.8283C115.251 17.521 114.796 17.3454 114.341 17.3893C113.885 17.3674 113.452 17.543 113.127 17.8503C112.802 18.2014 112.628 18.6624 112.628 19.1452ZM119.066 15.7871H121.386V24.5885H119.066V15.7871ZM119.066 12.6265V14.7994H120.735C120.996 14.6019 121.212 14.3385 121.386 14.0532V12.6484H119.045V12.6265H119.066ZM122.513 24.5665V15.7651H124.681V17.2138C124.919 16.7089 125.266 16.27 125.765 15.9407C126.198 15.6554 126.697 15.5237 127.195 15.5237H127.412C127.455 15.5237 127.499 15.5237 127.542 15.5457V17.8722H126.762C126.133 17.8722 125.635 18.0478 125.331 18.3551C125.006 18.6624 124.876 19.1672 124.876 19.8037V24.5665H122.513ZM134.999 22.7228V17.8722C135.021 17.1479 134.652 16.4675 134.024 16.0944C133.395 15.6773 132.441 15.5018 131.227 15.5018C130.1 15.5018 129.255 15.7432 128.626 16.27C128.019 16.7748 127.629 17.543 127.672 18.3331V18.4648H129.862V18.3331C129.84 18.0258 129.992 17.7405 130.252 17.543C130.577 17.3454 130.945 17.2576 131.336 17.2796C131.834 17.2796 132.224 17.3674 132.441 17.4991C132.68 17.6747 132.81 17.96 132.766 18.2453C132.766 18.6843 132.289 18.9696 131.292 19.1013C130.902 19.1452 130.577 19.1891 130.339 19.233C129.276 19.3867 128.539 19.672 128.062 20.111C127.607 20.528 127.369 21.1425 127.369 21.9546C127.369 22.8326 127.607 23.491 128.062 23.952C128.518 24.4129 129.19 24.6763 130.013 24.6763C130.577 24.6982 131.162 24.5665 131.661 24.3251C132.116 24.1056 132.528 23.7544 132.831 23.3155C132.831 23.491 133.005 24.5446 133.07 24.6763H134.999C134.999 24.5885 134.999 22.8984 134.999 22.7228ZM132.766 20.9231C132.788 21.4498 132.593 21.9766 132.246 22.3497C131.834 22.7009 131.292 22.8984 130.772 22.8765C130.469 22.8984 130.187 22.7887 129.927 22.6131C129.71 22.4375 129.601 22.1522 129.601 21.8449C129.58 21.6035 129.667 21.3401 129.84 21.1206C130.078 20.9231 130.36 20.7694 130.707 20.7036L131.487 20.528C131.943 20.4402 132.376 20.3085 132.81 20.111L132.766 20.9231ZM100.511 22.7009V17.8503C100.532 17.126 100.164 16.4455 99.5352 16.0724C98.9065 15.6554 97.9528 15.4798 96.7388 15.4798C95.6116 15.4798 94.7662 15.7212 94.1376 16.248C93.5306 16.7528 93.1404 17.521 93.1838 18.3331V18.4648H95.3732V18.3331C95.3515 18.0258 95.5032 17.7405 95.7633 17.543C96.0885 17.3454 96.457 17.2576 96.8472 17.2796C97.3458 17.2796 97.736 17.3674 97.9527 17.4991C98.1912 17.6747 98.3213 17.96 98.2779 18.2453C98.2779 18.6843 97.801 18.9696 96.8039 19.1013C96.4137 19.1452 96.0885 19.1891 95.8501 19.233C94.7879 19.3867 94.0508 19.672 93.574 20.111C93.1187 20.528 92.8803 21.1425 92.8803 21.9546C92.8803 22.8326 93.1187 23.491 93.574 23.952C94.0292 24.4129 94.7012 24.6763 95.5249 24.6763C96.0885 24.6982 96.6738 24.5665 97.1724 24.3251C97.6276 24.1056 98.0395 23.7544 98.3429 23.3155C98.3429 23.513 98.5163 24.5446 98.5814 24.6763H100.511C100.511 24.5885 100.511 22.8984 100.511 22.7009ZM98.2996 20.9011C98.3213 21.4279 98.1262 21.9546 97.7793 22.3278C97.3675 22.679 96.8255 22.8765 96.3053 22.8545C96.0018 22.8765 95.72 22.7667 95.4599 22.5912C95.2431 22.3936 95.1347 22.1302 95.1347 21.823C95.113 21.5815 95.1997 21.3181 95.3732 21.0987C95.6116 20.9011 95.8934 20.7475 96.2402 20.6816L97.0206 20.506C97.4759 20.4182 97.9094 20.2866 98.3429 20.089L98.2996 20.9011ZM78.7034 22.5034V18.2453C78.7034 17.3454 78.4216 16.665 77.8796 16.248C77.3594 15.831 76.4923 15.6115 75.3434 15.6115C74.2596 15.6115 73.4358 15.8529 72.8289 16.3578C72.2219 16.8626 71.8751 17.6088 71.9184 18.399V18.4648H73.2841C73.2624 18.0258 73.4358 17.5649 73.7827 17.3015C74.1295 17.0601 74.6281 16.9065 75.2784 16.9065C75.9287 16.9065 76.4056 17.0162 76.7091 17.2138C77.0342 17.4332 77.186 17.8064 77.1643 18.2014C77.186 18.4209 77.1643 18.6404 77.0776 18.8599C77.0126 18.9916 76.8825 19.0794 76.7524 19.1013C76.3189 19.2111 75.8637 19.2989 75.3868 19.3208L74.3679 19.4306C73.3708 19.5623 72.6554 19.8256 72.1352 20.2866C71.6583 20.7475 71.3765 21.4279 71.3982 22.0863C71.3982 22.8765 71.6366 23.513 72.1352 23.952C72.6121 24.3909 73.3274 24.6543 74.1945 24.6543C74.7365 24.6543 75.3001 24.5446 75.7986 24.3251C76.3189 24.0837 76.8391 23.7105 77.2077 23.2716V23.3374C77.186 23.6666 77.316 24.1495 77.5762 24.369C77.858 24.5885 78.2265 24.6763 78.595 24.6543C78.7034 24.5885 78.7034 22.5912 78.7034 22.5034ZM77.2077 21.3401C77.2293 21.9327 76.9475 22.4814 76.449 22.8326C75.907 23.2277 75.2133 23.4472 74.5414 23.4033C74.1295 23.4252 73.7176 23.3155 73.3925 23.074C73.1107 22.8326 72.9589 22.4814 72.9806 22.0863C72.9589 21.7352 73.089 21.384 73.3274 21.1206C73.6526 20.8792 74.0428 20.7036 74.4763 20.6597C74.6497 20.6377 74.8882 20.5938 75.235 20.5499C76.1671 20.4402 76.8175 20.2866 77.2077 20.0671V21.3401Z"
    fill="var(--icon-color, #BEBEBE)"></path>
</svg>