<svg width="100%" height="41.923%" viewBox="0 0 1040 436" fill="none" xmlns="http://www.w3.org/2000/svg">
  <g clip-path="url(#379609938_clip0_1391_182)">
    <path
      d="M389.422 278.111C372.432 282.957 355.436 285.074 337.939 285.519C341.906 300.78 348.397 314.086 362.403 322.386C372.43 328.328 383.386 329.459 394.68 327.92C414.166 325.265 430.926 316.203 445.515 303.723C453.923 296.53 460.791 287.374 467.46 278.435C469.04 276.316 467.609 271.344 466.576 267.988C461.804 252.483 459.836 236.522 457.718 220.519C454.671 197.493 455.114 174.357 456.13 151.362C457.303 124.826 460.64 98.386 469.779 73.0783C476.561 54.295 485.028 36.3344 497.363 20.6037C503.414 12.8867 510.656 5.75498 520.301 2.30882C535.868 -3.2532 547.703 1.08411 556.935 16.9526C564.076 29.2276 567.617 42.8251 568.733 56.883C569.857 71.0365 571.005 85.2769 570.632 99.4393C570.088 120.025 567.372 140.45 561.36 160.281C556.136 177.509 551.316 194.879 545.483 211.9C537.06 236.474 525.193 259.404 510.045 280.56C508.165 283.186 507.637 285.426 508.722 288.664C516.734 312.553 528.682 334.191 544.614 353.722C554.312 365.611 565.16 376.304 577.921 384.702C587.977 391.32 599.349 395.543 611.116 398.282C627.342 402.059 643.827 404.347 660.484 403.25C679.536 401.996 698.457 399.448 716.709 393.407C729.009 389.336 741.293 385.21 753.541 380.984C756.931 379.815 759.875 380.169 761.719 383.231C763.634 386.409 761.696 388.958 759.456 391.267C738.83 412.525 713.53 424.774 684.922 431.623C667.418 435.814 649.785 436.4 632.29 435.047C608.366 433.197 586.075 425.125 565.389 412.565C549.304 402.798 534.977 390.882 523.04 376.639C512.313 363.84 503.193 349.632 494.018 335.618C488.513 327.21 484.261 317.982 479.594 309.397C473.198 317.011 467.287 325.474 459.971 332.468C443.013 348.681 423.626 361.371 400.24 366.02C382.204 369.605 364.346 367.362 347.025 361.012C329.443 354.566 316.843 342.237 307.085 326.833C298.473 313.239 292.911 298.334 290.885 282.305C289.856 274.162 288.763 265.917 288.965 257.749C289.616 231.485 298.992 208.786 319.279 191.609C331.593 181.182 345.879 174.412 362.224 172.275C381.064 169.812 398.927 171.769 414.541 183.394C426.982 192.657 433.499 205.481 434.852 220.976C436.282 237.345 429.221 250.328 418.186 261.317C410.274 269.196 400.424 274.387 389.422 278.111ZM530.97 62.738C528.67 65.405 525.577 67.7207 524.214 70.8017C519.117 82.3191 513.615 93.8026 510.09 105.833C505.72 120.744 502.742 136.11 499.956 151.423C497.65 164.098 495.968 176.943 494.995 189.788C494.192 200.383 494.457 211.104 494.953 221.737C495.329 229.817 496.812 237.844 497.803 245.895C498.445 245.997 499.088 246.1 499.73 246.202C504.777 233.94 510.316 221.854 514.775 209.382C525.563 179.205 533.548 148.302 537.962 116.483C539.93 102.297 541.946 88.2336 539.888 73.8738C538.807 66.3299 536.794 63.0671 530.97 62.738ZM395.774 212.251C393.656 209.034 392.185 204.986 389.307 202.746C377.441 193.511 360.545 196.37 350.789 205.942C336.128 220.328 334.725 239.003 333.771 258.198C355.812 259.571 374.656 253.796 389.14 237.35C395.053 230.636 398.86 222.614 395.774 212.251Z"
      fill="var(--icon-color, #BEBEBE)"></path>
    <path
      d="M364.701 400.355C366.688 401.719 369.627 403.206 369.513 404.401C369.328 406.335 367.529 408.967 365.732 409.759C353.789 415.019 341.298 416.508 328.312 414.617C313.886 412.516 299.844 409.092 286.907 402.312C278.609 397.963 270.429 393.191 262.853 387.701C247.371 376.482 236.654 361.064 228.373 344.183C221.285 329.732 216.3 314.289 213.994 298.321C211.91 283.885 210.064 269.251 210.119 254.712C210.182 238.322 212.133 221.901 213.915 205.564C215.827 188.028 218.488 170.573 220.859 153.087C221.049 151.685 221.527 150.321 221.871 148.94C221.479 148.717 221.087 148.495 220.696 148.273C214.964 157.222 208.835 165.945 203.579 175.165C190.092 198.824 179.454 223.814 171.807 249.914C166.703 267.33 163.099 285.186 158.872 302.857C157.22 309.761 156.781 317.193 153.877 323.506C149.009 334.09 134.232 338.954 125.405 330.325C121.742 326.744 118.689 321.886 117.006 317.037C106.564 286.945 98.3795 256.211 92.8703 224.826C89.854 207.642 87.135 190.389 84.925 173.086C83.075 158.6 82.1699 143.995 80.8228 129.445C80.3848 124.714 79.8722 119.991 79.2371 113.718C76.1951 124.792 73.1545 134.473 70.9109 144.335C66.9811 161.609 63.1532 178.926 60.0308 196.359C57.9568 207.939 57.134 219.746 55.8418 231.462C54.1344 246.94 52.4501 262.421 50.8938 277.915C50.3339 283.49 49.9687 289.101 49.8671 294.702C49.4479 317.796 49.1587 340.894 48.8326 363.99C48.6597 376.239 41.2573 383.754 29.6671 386.452C22.7996 388.051 16.3267 387.449 10.2892 384.207C2.52902 380.04 -0.184051 372.382 0.00959816 364.405C0.413491 347.766 1.43565 331.117 2.9267 314.538C4.4507 297.592 6.50722 280.675 8.94976 263.836C11.1224 248.858 13.9988 233.975 16.8221 219.099C21.038 196.885 25.0694 174.624 29.9255 152.547C36.5937 122.232 45.1408 92.3895 57.2883 63.7878C62.1511 52.3382 67.9965 40.9846 75.3042 30.9825C83.0552 20.3737 96.2064 13.3202 111.645 17.3975C119.008 19.342 124.239 27.5034 124.918 36.6893C125.615 46.1041 123.042 54.8684 120.729 63.7331C117.532 75.9813 116.97 88.3065 118.721 100.869C120.123 110.936 120.597 121.13 121.889 131.216C123.424 143.194 125.174 155.155 127.232 167.054C129.892 182.44 132.878 197.771 135.874 213.096C136.857 218.125 138.306 223.063 139.831 229.209C143.056 221.722 145.579 215.324 148.526 209.127C157.537 190.172 166.506 171.193 175.88 152.417C185.052 134.044 197.395 117.937 212.609 104.125C224.46 93.3657 237.556 84.5985 253.621 81.6132C258.133 80.7748 262.985 80.9183 267.566 81.5055C274.382 82.3791 277.955 89.0584 275.28 96.2732C272.577 103.563 268.177 110.296 266.053 117.712C262.932 128.613 260.553 139.817 258.98 151.05C256.729 167.114 255.052 183.29 253.939 199.474C252.748 216.798 251.604 234.211 252.067 251.542C252.595 271.287 254.561 291.072 260.911 310.007C266.68 327.207 274.253 343.465 285.692 357.856C301.948 378.306 323.102 390.608 348.059 396.96C353.407 398.321 358.871 399.229 364.701 400.355Z"
      fill="var(--icon-color, #BEBEBE)"></path>
    <path
      d="M945.539 149.979C944.521 155.842 943.717 161.316 942.908 166.822C951.305 167.674 959.657 168.202 967.903 169.438C978.356 171.005 988.721 173.156 999.127 175.039C1003.39 175.81 1002.44 179.669 1003.23 182.295C1006.45 192.871 1004.92 202.862 997.366 211.032C993.561 215.147 988.728 218.707 983.714 221.239C963.682 231.355 945.193 243.969 928.071 258.149C913.545 270.178 901.035 284.644 887.683 298.08C886.947 298.821 886.664 300.012 885.953 301.425C904.337 296.498 922.737 295.29 941.12 296.549C958.32 297.728 975.649 299.34 992.044 305.383C1009.72 311.9 1025.06 321.812 1035.67 337.839C1037.53 340.653 1038.35 344.159 1039.87 347.902C1032.19 349.16 1026.96 345.71 1021.5 343.568C1005.58 337.319 989.361 332.093 972.441 329.501C965.503 328.438 958.388 328.532 951.363 328.1C950.82 336.023 950.511 343.253 949.754 350.436C949.367 354.115 948.426 357.787 947.302 361.324C945.206 367.925 939.795 370.406 933.535 371.289C930.757 371.681 927.871 371.492 925.048 371.324C920.899 371.077 918.519 367.831 918.854 364.08C919.862 352.784 920.615 341.465 921.542 329.174C915.244 329.652 909.828 329.547 904.626 330.551C885.326 334.276 866.1 338.386 846.839 342.312C837.09 344.3 832.082 336.813 830.886 328.247C829.901 321.19 832.016 314.561 835.3 308.46C845.169 290.126 857.771 273.801 873.055 259.69C893.14 241.147 914.913 224.765 938.112 210.284C941.823 207.968 945.365 205.379 949.848 202.33C943.821 201.617 938.507 200.581 933.171 200.444C922.181 200.162 911.142 199.793 900.192 200.513C888.463 201.284 876.792 203.107 865.141 204.787C859.53 205.596 854.052 207.286 848.463 208.297C841.769 209.509 832.079 202.879 830.965 196.077C830.353 192.338 830.329 188.365 830.847 184.61C831.61 179.082 835.485 176.203 840.839 175.373C854.052 173.326 867.24 171.055 880.507 169.442C892.716 167.957 905.015 167.213 916.712 166.192C918.443 157.684 919.696 149.308 921.914 141.195C924.572 131.476 936.519 126.833 945.328 131.589C948.457 133.278 948.07 136.136 947.565 138.993C946.942 142.522 946.355 146.057 945.539 149.979Z"
      fill="var(--icon-color, #BEBEBE)"></path>
    <path
      d="M807.831 270.356C808.501 286.041 808.961 301.24 809.932 316.407C810.4 323.724 811.996 330.961 812.783 338.266C813.868 348.338 810.194 353.163 798.93 358.209C794.702 360.104 789.991 360.984 785.44 362.073C781.364 363.048 778.55 360.476 777.897 354.979C777.027 347.668 776.468 340.321 775.702 332.202C767.959 342.032 758.966 349.395 748.253 354.531C725.785 365.302 703.007 362.6 683.513 346.673C668.507 334.413 661.887 317.904 657.816 299.802C653.63 281.188 654.243 262.256 655.074 243.49C655.851 225.956 658.567 208.442 666.406 192.359C671.551 181.804 677.905 172.013 690.509 169.246C694.625 168.343 699.073 168.054 703.243 168.546C707.463 169.045 706.877 173.682 706.601 176.116C705.023 190.042 702.406 203.853 700.922 217.787C699.148 234.446 697.385 251.175 697.101 267.899C696.909 279.193 698.312 290.607 702.691 301.484C707.269 312.853 715.069 320.449 727.136 321.02C737.41 321.506 745.656 315.697 751.862 307.305C760.145 296.107 762.61 283.153 763.863 269.724C765.034 257.164 766.506 244.632 767.763 232.079C768.238 227.331 768.462 222.557 768.831 217.798C769.823 205.016 770.805 192.233 771.847 179.456C772.233 174.722 776.911 169.849 782.263 169.487C789.129 169.023 796.103 168.725 802.656 171.725C805.418 172.989 806.898 174.667 806.918 178.112C807.101 208.694 807.498 239.275 807.831 270.356Z"
      fill="var(--icon-color, #BEBEBE)"></path>
    <path
      d="M619.674 360.365C611.615 363.136 603.814 363.054 596.029 361.29C589.688 359.853 584.418 353.295 583.864 346.316C583.083 336.472 582.162 326.621 581.9 316.758C581.34 295.686 580.6 274.593 581.028 253.531C581.318 239.303 583.354 225.101 584.856 210.913C585.522 204.617 586.54 198.331 587.856 192.138C589.992 182.088 595.382 178.743 602.618 177.48C612.314 175.788 623.195 180.244 625.646 187.79C627.204 192.588 626.137 198.386 625.634 203.678C624.582 214.739 622.922 225.742 621.901 236.805C621.204 244.362 620.457 252.027 620.973 259.559C622.183 277.218 623.927 294.849 625.866 312.447C627.151 324.113 629.054 335.716 630.864 347.319C631.787 353.234 628.037 357.719 619.674 360.365Z"
      fill="var(--icon-color, #BEBEBE)"></path>
    <path
      d="M402.681 101.282C410.741 103.76 417.224 110.098 415.883 118.697C414.79 125.711 409.774 129.238 404.399 132.401C388.983 141.472 373.642 150.699 357.892 159.16C352.631 161.987 346.304 163.613 340.324 164.112C333.465 164.685 328.139 156.267 331.644 150.356C335.313 144.169 340.004 138.298 345.3 133.435C353.468 125.935 362.132 118.812 371.343 112.663C378.526 107.868 386.763 104.575 394.747 101.111C396.846 100.201 399.744 101.134 402.681 101.282Z"
      fill="var(--icon-color, #BEBEBE)"></path>
    <path
      d="M629.621 117.363C633.959 118.835 638.174 119.776 641.691 121.881C649.33 126.452 648.477 141.22 642.191 147.412C635.587 153.917 627.128 156.747 618.187 158.41C609.086 160.103 597.175 153.287 593.903 144.471C590.78 136.056 593.707 129.372 602.991 124.363C611.136 119.968 620.048 118.19 629.621 117.363Z"
      fill="var(--icon-color, #BEBEBE)"></path>
  </g>
  <defs>
    <clipPath id="379609938_clip0_1391_182">
      <rect width="1040" height="436" fill="var(--icon-color-2, white)"></rect>
    </clipPath>
  </defs>
</svg>