<svg width="100%" height="59.45945945945946%" viewBox="0 0 111 66" fill="none" xmlns="http://www.w3.org/2000/svg">
  <path
    d="M33.1345 32.5658C33.1345 36.9868 30.4503 39.8026 27.003 39.9868C25.2398 40.0921 23.7135 39.5658 22.3714 38.4342C22.1346 38.25 21.9767 38.1974 21.6872 38.3026C18.8451 39.25 15.7925 37.5395 15.1346 34.6711C14.3715 31.329 16.9504 28.2501 20.3978 28.4606C20.8714 28.4869 21.3188 28.6185 21.7925 28.75C22.003 28.8027 22.1346 28.7764 22.2925 28.6448C24.7925 26.4343 28.503 26.4606 30.9503 28.6711C32.3977 29.9343 33.1082 31.5658 33.1345 32.5658ZM23.7398 33.4869C23.4504 31.4079 22.3978 30.2237 20.6609 29.9079C19.1346 29.6448 17.5557 30.4342 16.8452 31.829C16.1346 33.1974 16.3978 34.8816 17.4504 35.9868C18.4504 37.0395 20.1083 37.3289 21.0293 36.9079C20.3978 35.8553 20.0557 34.7237 20.0557 33.4869C20.5557 33.4869 21.003 33.4869 21.4767 33.4869C21.6083 36.4868 23.8977 38.4868 26.4767 38.5395C28.6346 38.5921 30.7398 37.2763 31.4766 34.9079C32.1872 32.5658 31.1345 30.0921 28.9503 28.9606C26.9504 27.9079 24.5556 28.4343 23.3714 29.5921C24.5293 30.6185 25.1083 31.8816 25.1346 33.4342C24.6609 33.4869 24.2135 33.4869 23.7398 33.4869Z"
    fill="#999999"></path>
  <path
    d="M70.108 37.1185C69.7133 37.1185 69.3449 37.1185 68.9764 37.1185C68.7396 37.1185 68.7659 36.9606 68.7659 36.829C68.7659 35.8816 68.7659 34.9343 68.7659 33.9869C68.7659 33.7501 68.7396 33.5132 68.687 33.2764C68.5817 32.8027 68.2922 32.4869 67.7922 32.4343C67.3185 32.3816 66.8975 32.5395 66.687 32.9869C66.5291 33.3027 66.4238 33.6711 66.4238 34.0132C66.3975 34.9343 66.4238 35.829 66.4238 36.75C66.4238 36.8553 66.4238 36.9869 66.4238 37.1185C65.9765 37.1185 65.5291 37.1185 65.0554 37.1185C65.0554 36.9342 65.0554 36.7764 65.0554 36.5921C65.0554 35.6974 65.0554 34.8027 65.0554 33.9079C65.0554 33.6974 65.0291 33.5132 65.0028 33.329C64.8712 32.8027 64.5554 32.5132 64.0554 32.4606C63.608 32.408 63.108 32.6448 62.9502 33.0658C62.8186 33.408 62.7396 33.8027 62.7133 34.1974C62.687 35.0658 62.687 35.9606 62.7133 36.8553C62.7133 37.0921 62.6607 37.1974 62.3975 37.1711C62.0554 37.1448 61.7396 37.1711 61.3712 37.1711C61.3712 35.25 61.3712 33.329 61.3712 31.408C61.7923 31.408 62.2396 31.408 62.687 31.408C62.687 31.5922 62.7133 31.8027 62.7133 32.0659C63.187 31.4343 63.7659 31.1974 64.4765 31.2238C65.187 31.2501 65.7396 31.5659 66.108 32.2237C66.1607 32.1711 66.2133 32.1448 66.2396 32.0922C66.8712 31.2764 67.7133 31.0395 68.687 31.2764C69.608 31.5132 70.0817 32.1974 70.108 33.0922C70.1606 34.4079 70.108 35.75 70.108 37.1185Z"
    fill="#999999"></path>
  <path
    d="M90.2657 36.3816C90.2657 37.3816 90.2657 38.3026 90.2657 39.2763C89.792 39.2763 89.3709 39.2763 88.9236 39.2763C88.9236 36.6447 88.9236 34.0395 88.9236 31.3816C89.3709 31.3816 89.792 31.3816 90.2657 31.3816C90.2657 31.6184 90.292 31.829 90.292 32.0921C90.4762 31.9342 90.6078 31.8026 90.7394 31.6974C91.8446 30.8553 93.5025 31.1184 94.3972 32.2763C95.2657 33.3816 95.2657 35.0658 94.4499 36.1974C93.4762 37.4605 91.4499 37.671 90.2657 36.3816ZM90.2131 34.1974C90.2131 35.1974 90.9762 36.0131 91.9499 36.0131C92.8972 36.0131 93.6867 35.2237 93.713 34.25C93.7393 33.25 92.9499 32.4342 91.9762 32.4079C91.0025 32.4079 90.2131 33.1974 90.2131 34.1974Z"
    fill="#999999"></path>
  <path
    d="M81.1869 37.1184C80.7132 37.1184 80.2922 37.1184 79.8185 37.1184C79.8185 36.9868 79.8185 36.8815 79.8185 36.7763C79.8185 35.7763 79.8185 34.75 79.8185 33.75C79.8185 33.0131 79.3975 32.5658 78.6869 32.4605C78.029 32.3816 77.4501 32.75 77.2396 33.4342C77.1869 33.6447 77.1343 33.8552 77.1343 34.0921C77.1343 34.9868 77.1343 35.8815 77.1343 36.7763C77.1343 36.8815 77.1343 37.0131 77.1343 37.171C76.7133 37.171 76.3185 37.171 75.9238 37.171C75.8712 37.171 75.8185 37.0921 75.7922 37.0394C75.7659 37.0131 75.7922 36.9605 75.7922 36.9079C75.7922 34.4079 75.7922 31.9079 75.7922 29.4079C75.7922 29.3553 75.7922 29.2763 75.8185 29.2237C76.2659 29.2237 76.6869 29.2237 77.1343 29.2237C77.1343 30.1711 77.1343 31.0921 77.1343 32.0658C77.2133 32.0132 77.2396 32.0132 77.2659 31.9868C77.8975 31.25 78.7133 31.1184 79.5817 31.3289C80.5027 31.5395 81.0817 32.2237 81.1343 33.3289C81.2396 34.5395 81.1869 35.8026 81.1869 37.1184Z"
    fill="#999999"></path>
  <path
    d="M60.5028 34.6185C59.0292 34.6185 57.5818 34.6185 56.1081 34.6185C56.0555 35.3027 56.7134 35.9869 57.4765 36.0658C58.1081 36.1448 58.6607 35.9606 59.0555 35.4342C59.187 35.25 59.2923 35.2237 59.5028 35.329C59.766 35.4869 60.0555 35.5921 60.3449 35.7237C59.9239 36.4605 59.3449 36.9342 58.5292 37.1184C57.0555 37.4605 55.6344 36.8553 55.0292 35.6184C54.2397 33.9606 54.8976 31.7237 56.9239 31.2501C59.2134 30.7501 60.7923 32.5658 60.5028 34.6185ZM59.1607 33.6185C59.1081 32.829 58.4239 32.2764 57.6081 32.2764C56.8713 32.3027 56.1607 32.9343 56.1081 33.6185C57.1344 33.6185 58.1344 33.6185 59.1607 33.6185Z"
    fill="#999999"></path>
  <path
    d="M88.0816 34.2238C88.0816 35.9606 86.7395 37.2764 84.9764 37.2501C83.2132 37.2237 81.8975 35.908 81.8975 34.1711C81.9238 32.4343 83.2396 31.1711 85.029 31.1711C86.7922 31.1975 88.108 32.4869 88.0816 34.2238ZM85.0027 36.0132C85.9501 36.0132 86.7395 35.2238 86.7659 34.2501C86.7922 33.2764 85.9764 32.4343 85.029 32.4343C84.0817 32.4343 83.2922 33.2501 83.2922 34.2238C83.2659 35.1974 84.029 36.0132 85.0027 36.0132Z"
    fill="#999999"></path>
  <path
    d="M38.1871 37.1183C37.766 37.1183 37.3713 37.1183 37.0029 37.1183C36.7923 37.1183 36.845 36.9341 36.845 36.8289C36.845 35.4605 36.845 34.0657 36.845 32.6973C36.845 32.2499 36.845 31.8289 36.845 31.3552C37.3186 31.3552 37.7397 31.3552 38.1871 31.3552C38.1871 31.5657 38.2134 31.7763 38.2134 32.0131C38.266 31.9605 38.3186 31.9605 38.3449 31.9078C38.9765 31.1973 39.766 31.0657 40.6344 31.25C41.5818 31.4605 42.187 32.1973 42.2133 33.3026C42.266 34.5394 42.2133 35.7762 42.2133 37.0131C42.2133 37.0394 42.187 37.0394 42.187 37.092C41.766 37.092 41.3186 37.092 40.8449 37.092C40.8449 36.8815 40.8449 36.671 40.8449 36.4868C40.8449 35.592 40.8449 34.671 40.8449 33.7763C40.8449 32.9868 40.4239 32.5131 39.687 32.4342C39.0028 32.3552 38.3976 32.8026 38.266 33.5394C38.2134 33.7236 38.1871 33.9341 38.1871 34.1447C38.1871 35.0131 38.1871 35.8815 38.1871 36.7499C38.1871 36.8552 38.1871 36.9604 38.1871 37.1183Z"
    fill="#999999"></path>
  <path
    d="M47.0291 31.3291C47.4502 31.3291 47.8186 31.3291 48.187 31.3291C48.266 31.3291 48.3976 31.4606 48.3976 31.5133C48.3976 32.6448 48.4239 33.8027 48.3712 34.9343C48.2923 36.5132 47.1607 37.329 45.5555 37.1974C44.1081 37.0922 43.2923 36.2238 43.2397 34.7764C43.2134 33.6975 43.2134 32.5922 43.2134 31.5133C43.2134 31.4606 43.2397 31.3817 43.2397 31.3027C43.6871 31.3027 44.1081 31.3027 44.5818 31.3027C44.5818 31.408 44.6081 31.5133 44.6081 31.6448C44.6081 32.6448 44.6081 33.6448 44.6081 34.6448C44.6081 35.5659 45.266 36.1185 46.1081 35.9343C46.6081 35.829 46.8713 35.4606 46.9765 34.9869C47.0291 34.6185 47.0291 34.2238 47.0555 33.829C47.0291 33.0396 47.0291 32.1975 47.0291 31.3291Z"
    fill="#999999"></path>
  <path
    d="M75.0027 32.4869C74.6343 32.6711 74.3185 32.8553 73.9501 33.0395C73.8448 32.9079 73.7659 32.7764 73.6606 32.6711C73.3711 32.3553 73.029 32.1974 72.608 32.3553C72.4501 32.4079 72.2659 32.5921 72.2396 32.75C72.2132 32.9079 72.3448 33.1448 72.4764 33.25C72.6606 33.4079 72.8975 33.4606 73.1343 33.5395C73.4764 33.6711 73.8185 33.7763 74.1343 33.9342C74.7396 34.2237 75.108 34.6974 75.0817 35.4079C75.0817 36.1184 74.7395 36.6448 74.108 36.9869C72.8711 37.6447 71.2396 37.1184 70.7396 35.8816C70.7396 35.8553 70.7133 35.829 70.7133 35.7763C71.0554 35.5921 71.4238 35.4079 71.7659 35.2237C71.9238 35.4079 72.029 35.6184 72.2132 35.7763C72.5554 36.0921 72.9501 36.1711 73.3711 36.0132C73.608 35.9342 73.7396 35.7763 73.7659 35.5132C73.7922 35.25 73.6606 35.0658 73.4501 34.9869C73.1606 34.8553 72.8448 34.7763 72.5554 34.6711C72.3185 34.5921 72.0554 34.4869 71.8185 34.3816C71.2133 34.0658 70.8711 33.5921 70.9238 32.8816C70.9501 32.1974 71.2922 31.6974 71.9238 31.3816C73.0553 30.8553 74.529 31.3553 75.0027 32.4869Z"
    fill="#999999"></path>
  <path
    d="M51.8185 35.329C52.029 34.7764 52.2133 34.329 52.3975 33.8817C52.6869 33.1185 53.0027 32.3554 53.2922 31.5922C53.3711 31.408 53.4501 31.3291 53.6606 31.3291C54.029 31.3554 54.3974 31.3291 54.8185 31.3291C54.7132 31.5659 54.6343 31.7764 54.5553 31.9606C53.8975 33.5659 53.2132 35.1711 52.5554 36.7764C52.4501 37.0132 52.3448 37.1185 52.0817 37.1185C51.2133 37.0922 51.2133 37.1185 50.8975 36.3027C50.2659 34.7501 49.608 33.1975 48.9764 31.6448C48.9501 31.5396 48.8975 31.4606 48.8448 31.3027C49.3185 31.3027 49.7396 31.3027 50.1606 31.3027C50.2396 31.3027 50.3185 31.4343 50.3712 31.5396C50.7922 32.6185 51.2133 33.7238 51.6343 34.829C51.6869 34.9869 51.7396 35.1185 51.8185 35.329Z"
    fill="#999999"></path>
</svg>