<svg width="100%" height="34.483%" viewBox="0 0 116 40" fill="none" xmlns="http://www.w3.org/2000/svg">
  <path
    d="M62.7234 29.6601L62.8068 14.5076L67.9582 14.5363C69.4303 14.5444 70.3589 14.9606 71.0694 15.6146C71.8445 16.3332 72.3146 17.3748 72.3092 18.5007C72.3039 19.5396 71.8221 20.5327 71.1035 21.2002C72.5281 21.9224 73.5805 23.487 73.5715 25.1969C73.5634 26.6036 72.9076 27.8775 71.8858 28.6948C71.1026 29.3398 70.105 29.7023 68.5682 29.6942L62.7234 29.6601ZM68.1896 27.6344C69.5533 27.6416 70.2046 27.3428 70.6827 26.8691C71.1188 26.417 71.4031 25.7908 71.4067 25.0982C71.4103 24.4056 71.1322 23.7983 70.7016 23.3407C70.2279 22.8617 69.5802 22.5557 68.2165 22.5477L64.9267 22.5297L64.8989 27.6165L68.1896 27.6344ZM67.5365 20.487C68.7485 20.4932 69.2698 20.2582 69.6178 19.8706C69.9444 19.5261 70.1418 19.0722 70.1445 18.5527C70.1472 18.0333 69.9552 17.5776 69.6322 17.2295C69.2886 16.8383 68.7701 16.597 67.558 16.5907L64.9608 16.5764L64.9393 20.4726L67.5365 20.487Z"
    fill="var(--icon-color, #BEBEBE)"></path>
  <path
    d="M80.7137 21.4036C80.476 21.3372 80.2382 21.3139 79.9135 21.3121C78.853 21.3067 77.7236 22.0361 77.1548 23.0068L77.118 29.7389L75.0618 29.7272L75.1183 19.5537L77.1099 19.5645L77.1036 20.7334C77.6051 20.0436 78.67 19.3563 80.1638 19.3653C80.38 19.3662 80.7263 19.3904 80.964 19.4344L80.7137 21.4036Z"
    fill="var(--icon-color, #BEBEBE)"></path>
  <path
    d="M89.3091 28.876C88.4828 29.6072 87.3766 30.0127 86.1637 30.0055C85.2549 30.0002 84.304 29.7355 83.6132 29.3201C82.0818 28.4024 81.0303 26.7086 81.0411 24.6739C81.0528 22.6392 82.1437 20.9346 83.6858 20.0348C84.3811 19.6275 85.2262 19.3943 86.179 19.3987C87.3264 19.405 88.4281 19.7576 89.3548 20.5632L89.3602 19.632L91.3518 19.6428L91.2953 29.8162L89.3037 29.8055L89.3091 28.876ZM89.2777 22.815C88.6542 21.9888 87.6189 21.3554 86.3853 21.3491C84.4152 21.3383 83.1081 22.911 83.0982 24.6864C83.0884 26.5049 84.487 28.0489 86.4562 28.0597C87.4951 28.065 88.5591 27.5519 89.257 26.6251L89.2777 22.815Z"
    fill="var(--icon-color, #BEBEBE)"></path>
  <path
    d="M93.9937 27.1268C94.942 27.8678 95.9791 28.2634 96.9964 28.2688C97.8837 28.2733 98.7736 27.8023 98.7781 27.0012C98.7844 25.8322 97.096 25.7577 95.6058 25.2518C94.3741 24.8337 93.2751 24.0487 93.2823 22.6196C93.2939 20.4333 95.2479 19.4482 97.0664 19.4581C98.5601 19.4662 99.6393 19.9488 100.437 20.6019L99.3684 22.0678C98.7431 21.5879 98.0093 21.2595 97.1866 21.255C96.1908 21.2497 95.3439 21.7215 95.3394 22.5218C95.3358 23.2144 96.1352 23.4566 97.1516 23.7221C98.7512 24.142 100.847 24.8678 100.835 26.968C100.824 28.8941 99.0212 30.0747 97.0296 30.064C95.4058 30.055 94.0457 29.5499 92.9243 28.6339L93.9937 27.1268Z"
    fill="var(--icon-color, #BEBEBE)"></path>
  <path
    d="M103.76 14.7334C104.518 14.7379 105.12 15.3471 105.117 16.1051C105.112 16.8623 104.503 17.4436 103.746 17.4392C102.989 17.4347 102.407 16.8471 102.411 16.0899C102.414 15.3327 103.002 14.7298 103.76 14.7334ZM102.715 19.7071L104.771 19.7188L104.715 29.8922L102.659 29.8806L102.715 19.7071Z"
    fill="var(--icon-color, #BEBEBE)"></path>
  <path d="M107.398 14.5371L109.454 14.5488L109.37 29.9175L107.313 29.9059L107.398 14.5371Z"
    fill="var(--icon-color, #BEBEBE)"></path>
  <path
    d="M15.7783 9.93579C10.635 9.93579 6.5459 14.1523 6.5459 19.8392C6.5459 25.5575 10.4116 29.7104 15.7783 29.7104C20.9215 29.7104 25.0107 25.4938 25.0107 19.8069C25.0098 14.1846 21.1449 9.93579 15.7783 9.93579ZM15.7783 25.3001C13.0663 25.3001 11.2442 23.1057 11.2442 19.8392C11.2442 16.5539 13.0663 14.3461 15.7783 14.3461C18.4912 14.3461 20.3133 16.5405 20.3133 19.8069C20.3124 23.0922 18.4903 25.3001 15.7783 25.3001Z"
    fill="var(--icon-color, #BEBEBE)"></path>
  <path
    d="M38.4452 24.5143H31.9006V10.9954C31.9006 10.3791 31.5444 10.0229 30.9281 10.0229H27.9783C27.3629 10.0229 27.0059 10.3791 27.0059 10.9954V27.177C27.0059 28.4411 27.6868 29.122 28.9508 29.122H38.4452C39.0606 29.122 39.4177 28.9291 39.4177 28.3128V25.6501C39.4177 25.0347 39.0615 24.5143 38.4452 24.5143Z"
    fill="var(--icon-color, #BEBEBE)"></path>
  <path
    d="M57.5507 25.9515L52.1284 19.8088L52.1867 19.7442H52.1499L57.4206 13.6626C57.8781 13.1396 57.8449 12.5842 57.3228 12.0944L55.3294 10.2974C54.8064 9.80761 54.2187 9.8399 53.7612 10.3952L49.0575 16.2113L44.0919 10.3952C43.6344 9.8722 43.0467 9.80761 42.5237 10.2974L40.4657 12.1267C39.9427 12.6165 39.9104 13.1396 40.4002 13.6949L45.8225 19.8375L45.7642 19.9021H45.8009L40.5303 25.9838C40.0728 26.5068 40.1059 27.0621 40.6281 27.552L42.6206 29.3489C43.1436 29.8388 43.7313 29.8065 44.1888 29.2511L49.0557 23.6001L53.8572 29.2511C54.3147 29.7742 54.9023 29.8388 55.4254 29.3489L57.4834 27.5197C58.0082 27.0298 58.0405 26.5068 57.5507 25.9515Z"
    fill="var(--icon-color, #BEBEBE)"></path>
</svg>