<?xml version="1.0" encoding="utf-8"?><!-- Generator: Adobe Illustrator 22.0.0, SVG Export Plug-In . SVG Version: 6.00 Build 0) --><svg version="1.1" id="Capa_1" xmlns="http://www.w3.org/2000/svg" xmlns:xlink="http://www.w3.org/1999/xlink" x="0px" y="0px"	 viewBox="0 0 1286 312" style="enable-background:new 0 0 1286 312;" xml:space="preserve"><style type="text/css">	.st0{fill:#FFFFFF;}</style><g>	<g>		<path class="st0" d="M346.4,81.8v110.9c0,0-1.4,28.9,25.1,33.4c0,0,1.4,0.4,5.4,0.6s20.5,0,20.5,0v-12.5h-20.3			c0,0-8.9,0.5-13.6-7.9s-3.4-18.3-3.4-18.3v-47.8h30.6v-11.5H360v-47H346.4z"/>		<path class="st0" d="M455.6,214.9c19.1,0,25.3-12.8,25.3-12.8H496c-6.5,13.8-18.9,20.3-18.9,20.3s-24,11.7-47.4-2.1			c-24.1-14.2-23.6-37.1-23.6-37.1s-3.3-54.9,47.1-54.9c48.9,0,45.5,54.9,45.5,54.9h-80.5C419,203.2,436.5,214.9,455.6,214.9z			 M418.2,172.6h67.3c0,0-0.2-32.5-33-32.5S418.2,172.6,418.2,172.6z"/>		<path class="st0" d="M587.7,203.1c-6.6,6.7-15.8,10.9-26,10.9c-20.1,0-36.4-16.3-36.4-36.4c0-20.1,16.3-36.4,36.4-36.4			c10.2,0,19.5,4.2,26.1,11l11.5-6.4c-9-10.7-22.5-17.4-37.5-17.4c-27.2,0-49.2,22-49.2,49.2c0,27.2,22,49.2,49.2,49.2			c15,0,28.5-6.7,37.5-17.4L587.7,203.1z"/>		<path class="st0" d="M1206.1,177.6c0,27.2-22,49.2-49.2,49.2c-27.2,0-49.2-22-49.2-49.2s22-49.2,49.2-49.2			C1184.1,128.3,1206.1,150.4,1206.1,177.6z M1156.9,149c-15.8,0-28.6,12.8-28.6,28.6s12.8,28.6,28.6,28.6			c15.8,0,28.6-12.8,28.6-28.6S1172.7,149,1156.9,149z"/>		<path class="st0" d="M1071.8,90.4v47c-8.1-5.7-17.9-9.1-28.6-9.1c-27.2,0-49.2,22-49.2,49.2s22,49.2,49.2,49.2			c10.7,0,20.5-3.4,28.6-9.1v9.1h20.7V82.4L1071.8,90.4z M1043.2,206.1c-15.8,0-28.6-12.8-28.6-28.6s12.8-28.6,28.6-28.6			s28.6,12.8,28.6,28.6S1059,206.1,1043.2,206.1z"/>		<path class="st0" d="M728.1,128.4c-13.9,0-26.4,6.3-34.8,16.1c-8.4-9.9-20.8-16.1-34.8-16.1c-25.2,0-45.6,20.4-45.6,45.6v52.9			h21.4v-54.2c0-13.4,10.8-24.2,24.2-24.2s23.9,9.3,23.9,22.7v55.7l21.7-0.3c0,0-0.1-41.3-0.1-55.2c0-15,11.7-22.8,23.9-22.8			c13.4,0,24.2,10.8,24.2,24.2v54.2h21.4V174C773.6,148.8,753.2,128.4,728.1,128.4z"/>		<path class="st0" d="M962.3,137.3C962.3,137.3,962.3,137.3,962.3,137.3c0,0-0.1-0.1-0.1-0.1c-4.9-3.6-10.5-6.2-16.6-7.6			c-3-0.7-6.2-1.2-9.3-1.2c-0.2,0-0.3,0-0.5,0c-0.2,0-0.3,0-0.5,0c-9.6,0-18.4,2.9-25.7,8c-11,7.6-18.9,22.3-18.9,37.6v52.9h21.4			v-54.2c0-13.2,10.6-23.9,23.7-24.2c13.1,0.3,23.7,11,23.7,24.2v54.2h21.4V174C980.9,159,973.6,145.6,962.3,137.3z"/>		<path class="st0" d="M804.3,218.1C804.3,218.1,804.3,218.1,804.3,218.1c0,0,0.1,0.1,0.1,0.1c4.9,3.6,10.5,6.2,16.6,7.6			c3,0.7,6.2,1.2,9.3,1.2c0.2,0,0.3,0,0.5,0c0.2,0,0.3,0,0.5,0c9.6,0,18.4-2.9,25.7-8c11-7.6,18.9-22.3,18.9-37.6v-52.9h-21.4v54.2			c0,13.2-10.6,23.9-23.7,24.2c-13.1-0.3-23.7-11-23.7-24.2v-54.2h-21.4v52.9C785.7,196.4,793,209.8,804.3,218.1z"/>	</g>	<g>		<path class="st0" d="M169.2,227.4l-39-40v59.3c0,7,5.8,12.8,12.8,12.8h52.4c7,0,12.8-5.8,12.8-12.8v-59.3L169.2,227.4z"/>		<path class="st0" d="M253.8,48.6H84.7c-7,0-12.8,5.8-12.8,12.8v54c0,7,5.8,12.8,12.8,12.8h52.4l32.1,32.8l32.1-32.8h52.4			c7,0,12.8-5.8,12.8-12.8v-54C266.5,54.3,260.8,48.6,253.8,48.6z"/>	</g></g></svg>