<svg xmlns="http://www.w3.org/2000/svg" width="18" height="18" viewBox="0 0 18 18" fill="none">
  <path
    d="M14.0688 4.70796C13.9637 4.65564 13.8614 4.59828 13.7622 4.5361C13.4738 4.3525 13.2094 4.13617 12.9747 3.89176C12.3873 3.2446 12.168 2.58807 12.0872 2.12841H12.0904C12.0229 1.74686 12.0508 1.5 12.0551 1.5H9.37999V11.4614C9.37999 11.5951 9.37999 11.7273 9.37415 11.8579C9.37415 11.8742 9.37253 11.8892 9.37156 11.9067C9.37156 11.9139 9.37156 11.9214 9.36993 11.9289C9.36993 11.9307 9.36993 11.9326 9.36993 11.9345C9.34174 12.2919 9.22276 12.6372 9.02348 12.9399C8.8242 13.2426 8.55072 13.4936 8.22709 13.6706C7.8898 13.8554 7.50832 13.9524 7.12026 13.9519C5.87391 13.9519 4.86378 12.9732 4.86378 11.7645C4.86378 10.5558 5.87391 9.5771 7.12026 9.5771C7.35619 9.57689 7.59067 9.61264 7.81499 9.68303L7.81824 7.06003C7.13726 6.97532 6.44544 7.02744 5.78642 7.2131C5.1274 7.39876 4.51549 7.71393 3.98929 8.13873C3.52821 8.52452 3.14058 8.98484 2.84385 9.49898C2.73093 9.68647 2.30487 10.4399 2.25328 11.6626C2.22083 12.3566 2.43727 13.0757 2.54045 13.3728V13.3791C2.60535 13.5541 2.85683 14.1512 3.26665 14.6547C3.59712 15.0585 3.98756 15.4132 4.4254 15.7074V15.7012L4.43189 15.7074C5.72692 16.5549 7.16277 16.4993 7.16277 16.4993C7.41133 16.4896 8.24396 16.4993 9.18952 16.0677C10.2383 15.5893 10.8353 14.8765 10.8353 14.8765C11.2167 14.4506 11.52 13.9653 11.7322 13.4413C11.9743 12.8285 12.0551 12.0935 12.0551 11.7998V6.51506C12.0875 6.53381 12.5197 6.80911 12.5197 6.80911C12.5197 6.80911 13.1424 7.19347 14.1139 7.44377C14.8109 7.62188 15.75 7.65938 15.75 7.65938V5.10201C15.421 5.13638 14.7529 5.03639 14.0688 4.70796Z"
    fill="white"></path>
</svg>